<svg xmlns="http://www.w3.org/2000/svg" data-name="Layer 1" viewBox="0 0 128 128"><path d="M4.21 31.61a2 2 0 0 1 1.19-1s56.41-18.3 57.37-18.46h.14a7.8 7.8 0 0 1 4.65.38l2.07.67-.35-1A6 6 0 0 0 63.55 8a6.09 6.09 0 0 0-1.86.29L4.17 26.8a6 6 0 0 0-3.53 3 5.87 5.87 0 0 0-.34 4.54L24 105.77V93.06l-19.9-60a1.9 1.9 0 0 1 .11-1.45Z"/><path d="m19 55.5 3.74 11.28A4 4 0 0 0 24 68.61V57.94l-1.21-3.66 1.21-.4v-4.2l-2.48.8A4 4 0 0 0 19 55.5zM64.47 16a6 6 0 0 0-5.73 4.11l-1 2.89H62l.54-1.63A2 2 0 0 1 64.47 20a2.08 2.08 0 0 1 .64.1l9 2.9H87.2l-20.87-6.7a6.05 6.05 0 0 0-1.86-.3zM41.8 41.11a1.24 1.24 0 0 1 .32-.41 1.7 1.7 0 0 1 1.1-.39h.19a3 3 0 0 1 .69.24 1.07 1.07 0 0 1 .42.37 2.81 2.81 0 0 0 .6.61 2 2 0 0 0 2.39-.18 1.59 1.59 0 0 0 .55-1.2 1.4 1.4 0 0 0-.1-.5 2.31 2.31 0 0 0-.19-.38A4.59 4.59 0 0 0 46 37.64a5.23 5.23 0 0 0-1.61-.52 6.22 6.22 0 0 0-3.21.27 5.2 5.2 0 0 0-1.64 1 4.7 4.7 0 0 0-1.09 1.49A4.26 4.26 0 0 0 38 41.7v2.79a3.91 3.91 0 0 0 .43 1.82 4.8 4.8 0 0 0 1.14 1.44 5.29 5.29 0 0 0 1.65.95 6 6 0 0 0 2 .34h.17a5.54 5.54 0 0 0 2.61-.61 4.52 4.52 0 0 0 1.79-1.62 4.1 4.1 0 0 0 .18-.37 1.31 1.31 0 0 0 .11-.52 1.58 1.58 0 0 0-.56-1.21 2.07 2.07 0 0 0-2.45-.16 3.12 3.12 0 0 0-.53.58 1.29 1.29 0 0 1-.44.38 2.34 2.34 0 0 1-.67.22h-.17a1.69 1.69 0 0 1-1.16-.42 1.26 1.26 0 0 1-.32-.43 1.12 1.12 0 0 1-.1-.54v-2.73a1.11 1.11 0 0 1 .12-.5zm10.55-3.61a2.06 2.06 0 0 0-2.64 0 1.55 1.55 0 0 0-.56 1.2v8.65a1.73 1.73 0 0 0 .57 1.17 1.92 1.92 0 0 0 1.33.49h5.86a1.91 1.91 0 0 0 1.3-.49 1.59 1.59 0 0 0 0-2.4 1.91 1.91 0 0 0-1.3-.49h-4V38.7a1.55 1.55 0 0 0-.56-1.2zm14.37 11.04A2 2 0 0 0 68 49a1.92 1.92 0 0 0 1.27-.5 1.53 1.53 0 0 0 .52-1.14v-5.8a3.92 3.92 0 0 0-.43-1.82 4.8 4.8 0 0 0-1.14-1.44 5.24 5.24 0 0 0-1.65-.95 6 6 0 0 0-4 0 5.21 5.21 0 0 0-1.64 1 4.7 4.7 0 0 0-1.09 1.49 4.46 4.46 0 0 0-.42 1.82v5.68a1.45 1.45 0 0 0 .58 1.19 2 2 0 0 0 2.56 0 1.52 1.52 0 0 0 .56-1.16v-1.46h3.06v1.47a1.46 1.46 0 0 0 .54 1.16zm-3.62-5.92v-1a1.12 1.12 0 0 1 .12-.5 1.3 1.3 0 0 1 .32-.41 1.69 1.69 0 0 1 .49-.28 1.66 1.66 0 0 1 1.18 0 1.77 1.77 0 0 1 .51.31 1.28 1.28 0 0 1 .44 1v.92zm11.09 5.92a1.57 1.57 0 0 0 .54-1.19v-8.63a1.56 1.56 0 0 0-.54-1.18 2 2 0 0 0-2.65 0 1.56 1.56 0 0 0-.54 1.18v8.63a1.57 1.57 0 0 0 .54 1.19 2 2 0 0 0 1.34.49 1.92 1.92 0 0 0 1.31-.49zM90 47.33V41a3.87 3.87 0 0 0-.4-1.54 4.4 4.4 0 0 0-2.33-2.12 4.68 4.68 0 0 0-3.32 0 6.21 6.21 0 0 0-1 .47 5.67 5.67 0 0 0-1-.48 4.67 4.67 0 0 0-4.74.94 4 4 0 0 0-.94 1.28A3.53 3.53 0 0 0 76 41v6.3a1.59 1.59 0 0 0 .54 1.21 2.08 2.08 0 0 0 2.66 0 1.59 1.59 0 0 0 .54-1.21v-6.13a.58.58 0 0 1 .2-.46.76.76 0 0 1 1 0 .56.56 0 0 1 .2.45v6.17a1.59 1.59 0 0 0 .54 1.21 2.06 2.06 0 0 0 2.64 0 1.59 1.59 0 0 0 .54-1.21v-6.16a.55.55 0 0 1 .2-.45.75.75 0 0 1 1 0 .58.58 0 0 1 .2.46v6.17a1.58 1.58 0 0 0 .54 1.21 2 2 0 0 0 1.34.49 1.92 1.92 0 0 0 1.31-.49 1.57 1.57 0 0 0 .55-1.23zM89 59a4 4 0 0 0-4-4H43a4 4 0 0 0-4 4v12a4 4 0 0 0 4 4h42a4 4 0 0 0 4-4zm-4 12H43V59h42z"/><path d="M28 33v54a2 2 0 1 0 4 0V33a2 2 0 0 1 2-2h60a2 2 0 0 1 2 2v37.09l1.62-2L100 65V33a6 6 0 0 0-6-6H34a6 6 0 0 0-6 6zm4 78.07v-8a2 2 0 0 0-.07-.5 2 2 0 1 0-3.86 0 2 2 0 0 0-.07.5v8a6 6 0 0 0 6 6h32a6 6 0 0 1 .24-1.65l.7-2.36H34a2 2 0 0 1-2-1.99zm55.94 6H94a6 6 0 0 0 5.49-3.59zm34.68-78.46a2 2 0 0 1 .82.51 6 6 0 0 1 4.56 1 5.91 5.91 0 0 0-.63-2.34 6 6 0 0 0-3.53-3L102.63 28a9.93 9.93 0 0 1 1.37 4.62zM105 106.57a6.83 6.83 0 0 1-1 3.64v.86a10 10 0 0 1-5.5 8.93 6 6 0 0 0 4.79-4l5.92-17.84A8.1 8.1 0 0 1 106 99a22.2 22.2 0 0 0-1 7.57z"/><path d="M124.2 74.34 105 91a.19.19 0 0 1-.19 0l-8.24-8.6a.45.45 0 0 1-.05-.36l29.53-35.74a2 2 0 1 0-3.05-2.55L93.4 79.54a4.4 4.4 0 0 0-.33 4.77 23.76 23.76 0 0 1-10.94 2.41h-1.08a2.83 2.83 0 0 0-2.65 1.88l-8.31 28a1.07 1.07 0 0 0 1.43 1.4l27.55-8.55a2.94 2.94 0 0 0 1.93-2.77c-.12-5.75 1.12-9.49 2.5-11.87a4.11 4.11 0 0 0 4.1-.7l19.22-16.74a2 2 0 0 0-2.63-3ZM97 105.88l-15.91 4.94 8.76-8.82h.16a3 3 0 1 0-3-3v.16L76.21 110l5.74-19.32h.19c3.89 0 9.16-.63 13.66-3.36l4.61 4.81C98.57 95 97 99.4 97 105.88Z"/><path d="m117.87 65.85-13.25 12.76a2 2 0 1 0 2.77 2.88l13.25-12.76a2 2 0 0 0-2.77-2.88zM81.05 82.7h1.08a23.27 23.27 0 0 0 6.25-.83 2 2 0 0 0-1.62-.87H41a2 2 0 0 0 0 4h34.94a6.91 6.91 0 0 1 5.11-2.3zm-6.96 6.35H41a2 2 0 0 0 0 4h31.9zM39 99.06a2 2 0 0 0 2 2h29.53l1.19-4H41a2 2 0 0 0-2 2z"/></svg>