<svg width="73" height="72" viewBox="0 0 73 72" fill="none" xmlns="http://www.w3.org/2000/svg">
<g filter="url(#filter0_dd_34_1519)">
<rect x="12.1299" y="2" width="48" height="48" rx="24" fill="white"/>
<path d="M36.6626 31.1626H32.2876C31.7626 31.1626 31.4126 30.8126 31.4126 30.2876C31.4126 29.7626 31.7626 29.4126 32.2876 29.4126H36.6626C37.1876 29.4126 37.5376 29.7626 37.5376 30.2876C37.5376 30.8126 37.1876 31.1626 36.6626 31.1626Z" fill="#37392C"/>
<path d="M45.1501 32.8249H43.4001C43.4001 32.8249 43.4001 32.8249 43.4001 32.7374V19.5249C43.4001 18.2999 42.9626 17.0749 42.0876 16.1999C41.0376 15.0624 39.4626 14.3624 37.8001 14.3624H28.9626C28.4376 14.2749 27.8251 14.3624 27.3876 14.6249C27.2126 14.7124 27.1251 14.7999 26.9501 14.8874C25.9876 15.4999 25.2876 16.6374 25.2876 17.9499V21.3624C25.2876 21.8874 25.6376 22.2374 26.1626 22.2374H28.0876V34.4874C28.0876 35.8874 28.8751 37.1124 30.0126 37.8124C30.1001 37.8124 30.1001 37.8999 30.1876 37.8999C30.1876 37.8999 30.1876 37.8999 30.2751 37.8999C30.7126 38.1624 31.2376 38.2499 31.8501 38.2499H42.3501C42.4376 38.2499 42.6126 38.2499 42.7001 38.2499C44.5376 38.0749 46.0251 36.6749 46.0251 35.0124V33.6999C46.0251 33.1749 45.6751 32.8249 45.1501 32.8249ZM28.0876 20.4874H27.0376V17.9499C27.0376 17.4249 27.2126 16.9874 27.5626 16.6374C27.9126 16.9874 28.0876 17.5124 28.0876 18.0374V20.4874ZM37.8001 16.0249C39.0251 16.0249 40.0751 16.5499 40.8626 17.3374C41.3876 17.9499 41.7376 18.6499 41.7376 19.4374V32.7374C41.7376 32.7374 41.7376 32.7374 41.7376 32.8249H32.4626C32.3751 32.8249 32.2876 32.8249 32.2001 32.8249C32.1126 32.8249 32.0251 32.8249 31.9376 32.8249C31.5001 32.8249 31.0626 33.2624 31.0626 33.6999V34.7499C31.0626 35.2749 30.8001 35.7124 30.4501 36.0624C30.0126 35.7124 29.7501 35.0999 29.7501 34.4874V17.9499C29.7501 17.2499 29.5751 16.5499 29.2251 16.0249H37.8001ZM44.2751 35.0124C44.2751 35.7999 43.4001 36.4999 42.3501 36.4999H32.3751C32.7251 35.9749 32.9001 35.3624 32.9001 34.6624V34.4874H44.2751V35.0124Z" fill="#37392C"/>
<path d="M38.4126 28.5375H32.2876C31.7626 28.5375 31.4126 28.1875 31.4126 27.6625C31.4126 27.1375 31.7626 26.7875 32.2876 26.7875H38.4126C38.9376 26.7875 39.2876 27.1375 39.2876 27.6625C39.2876 28.1875 38.9376 28.5375 38.4126 28.5375ZM37.8876 22.5875C37.8876 23.6375 37.2751 24.425 36.3126 24.6875H36.2251C36.2251 24.6875 36.2251 24.6875 36.1376 24.6875V25.125C36.1376 25.65 35.7876 26 35.2626 26C34.7376 26 34.3876 25.65 34.3876 25.125V24.8625C33.6001 24.775 32.8126 24.425 32.6376 23.55C32.5501 23.1125 32.8126 22.5875 33.3376 22.5C33.7751 22.4125 34.1251 22.675 34.3001 23.025C34.5626 23.1125 35.2626 23.1125 35.8751 23.025C36.1376 22.9375 36.1376 22.7625 36.1376 22.675C36.1376 22.5875 36.1376 22.4125 35.8751 22.325H34.6501C34.6501 22.325 34.6501 22.325 34.5626 22.325C34.5626 22.325 34.5626 22.325 34.4751 22.325C34.3876 22.325 34.3876 22.325 34.3001 22.325C33.2501 22.15 32.5501 21.275 32.5501 20.225C32.5501 19.175 33.1626 18.3 34.1251 18.0375H34.2126V17.6875C34.2126 17.1625 34.5626 16.8125 35.0876 16.8125C35.5251 16.8125 35.9626 17.1625 35.9626 17.6875V17.95C36.7501 18.0375 37.5376 18.3875 37.7126 19.2625C37.8001 19.7 37.5376 20.225 37.0126 20.3125C36.5751 20.4 36.1376 20.1375 36.0501 19.7875C35.7876 19.7 35.0876 19.7 34.4751 19.7875C34.2126 19.875 34.2126 20.05 34.2126 20.225C34.2126 20.3125 34.2126 20.575 34.4751 20.6625H35.7876C35.8751 20.6625 35.8751 20.6625 35.9626 20.6625C37.1001 20.75 37.8001 21.5375 37.8876 22.5875Z" fill="#37392C"/>
</g>
<defs>
<filter id="filter0_dd_34_1519" x="0.129883" y="0" width="72" height="72" filterUnits="userSpaceOnUse" color-interpolation-filters="sRGB">
<feFlood flood-opacity="0" result="BackgroundImageFix"/>
<feColorMatrix in="SourceAlpha" type="matrix" values="0 0 0 0 0 0 0 0 0 0 0 0 0 0 0 0 0 0 127 0" result="hardAlpha"/>
<feMorphology radius="4" operator="erode" in="SourceAlpha" result="effect1_dropShadow_34_1519"/>
<feOffset dy="4"/>
<feGaussianBlur stdDeviation="3"/>
<feComposite in2="hardAlpha" operator="out"/>
<feColorMatrix type="matrix" values="0 0 0 0 0 0 0 0 0 0 0 0 0 0 0 0 0 0 0.1 0"/>
<feBlend mode="normal" in2="BackgroundImageFix" result="effect1_dropShadow_34_1519"/>
<feColorMatrix in="SourceAlpha" type="matrix" values="0 0 0 0 0 0 0 0 0 0 0 0 0 0 0 0 0 0 127 0" result="hardAlpha"/>
<feMorphology radius="3" operator="erode" in="SourceAlpha" result="effect2_dropShadow_34_1519"/>
<feOffset dy="10"/>
<feGaussianBlur stdDeviation="7.5"/>
<feComposite in2="hardAlpha" operator="out"/>
<feColorMatrix type="matrix" values="0 0 0 0 0 0 0 0 0 0 0 0 0 0 0 0 0 0 0.1 0"/>
<feBlend mode="normal" in2="effect1_dropShadow_34_1519" result="effect2_dropShadow_34_1519"/>
<feBlend mode="normal" in="SourceGraphic" in2="effect2_dropShadow_34_1519" result="shape"/>
</filter>
</defs>
</svg>
