<svg width="72" height="72" viewBox="0 0 72 72" fill="none" xmlns="http://www.w3.org/2000/svg">
<g filter="url(#filter0_dd_34_1514)">
<rect x="12" y="2" width="48" height="48" rx="24" fill="white"/>
<path d="M29.3892 18.0445C28.1566 18.659 27.0784 19.5435 26.2346 20.6321C26.1644 20.7241 26.1336 20.8402 26.149 20.955C26.1643 21.0697 26.2245 21.1737 26.3163 21.2441C26.4082 21.3146 26.5242 21.3457 26.639 21.3307C26.7538 21.3158 26.8579 21.2559 26.9286 21.1642C27.6933 20.1795 28.6699 19.3796 29.786 18.8239C29.8876 18.7703 29.964 18.6789 29.9988 18.5694C30.0335 18.4598 30.0238 18.3411 29.9717 18.2387C29.9195 18.1363 29.8292 18.0585 29.7202 18.0222C29.6112 17.9858 29.4923 17.9938 29.3892 18.0445ZM30.1223 16.4548C30.2292 16.4129 30.3154 16.3306 30.3622 16.2257C30.409 16.1208 30.4126 16.0017 30.3724 15.8942C30.3321 15.7866 30.2511 15.6992 30.147 15.6508C30.0428 15.6024 29.9238 15.597 29.8156 15.6356C27.2859 16.5218 25.1565 18.2834 23.8119 20.6022C23.7567 20.7026 23.7431 20.8206 23.7741 20.931C23.805 21.0413 23.878 21.1351 23.9774 21.1921C24.0768 21.2492 24.1945 21.265 24.3054 21.2361C24.4163 21.2073 24.5115 21.136 24.5704 21.0378C25.8151 18.8967 27.7842 17.2713 30.1223 16.4548ZM45.0707 21.5048C45.1421 21.5943 45.2458 21.6522 45.3595 21.6661C45.4732 21.68 45.5878 21.6487 45.6786 21.579C45.7695 21.5094 45.8294 21.4068 45.8455 21.2934C45.8616 21.18 45.8326 21.0649 45.7647 20.9726C44.9209 19.8841 43.8427 18.9997 42.6101 18.3851C42.5068 18.3327 42.3869 18.3234 42.2767 18.3594C42.1666 18.3953 42.0752 18.4735 42.0227 18.5767C41.9701 18.68 41.9607 18.7999 41.9964 18.9101C42.0322 19.0203 42.1102 19.1118 42.2134 19.1645C43.3294 19.7202 44.306 20.5201 45.0707 21.5048ZM48.1874 20.9428C46.8428 18.624 44.7134 16.8624 42.1837 15.9762C42.0751 15.9357 41.9549 15.94 41.8494 15.9881C41.744 16.0362 41.6619 16.1241 41.6213 16.2327C41.5807 16.3412 41.5848 16.4615 41.6327 16.567C41.6807 16.6725 41.7685 16.7546 41.877 16.7954C44.2151 17.6119 46.1842 19.2374 47.4289 21.3784C47.4879 21.4766 47.583 21.5478 47.6939 21.5766C47.8047 21.6054 47.9225 21.5896 48.0218 21.5325C48.1211 21.4755 48.1941 21.3818 48.2251 21.2715C48.2561 21.1612 48.2425 21.0432 48.1874 20.9428ZM41.6571 24.2742C41.7825 24.5606 41.8579 24.8664 41.88 25.1783C41.8913 25.2858 41.942 25.3852 42.0222 25.4575C42.1024 25.5298 42.2066 25.5699 42.3146 25.57C43.1334 25.5047 42.5719 24.2208 42.4381 23.8802C41.8889 22.8289 40.9906 22.0017 39.8976 21.5409C39.8453 21.5171 39.7889 21.5038 39.7315 21.5018C39.6741 21.4999 39.6168 21.5092 39.563 21.5293C39.5092 21.5494 39.4599 21.58 39.4179 21.6192C39.3759 21.6583 39.342 21.7054 39.3182 21.7577C39.2944 21.81 39.2811 21.8664 39.2791 21.9238C39.2772 21.9812 39.2865 22.0385 39.3066 22.0923C39.3267 22.1461 39.3573 22.1954 39.3965 22.2374C39.4356 22.2794 39.4827 22.3132 39.535 22.337C40.4458 22.7168 41.196 23.4017 41.6571 24.2742Z" fill="#37392C"/>
<path d="M46.464 29.399L45.3792 28.5267C45.6681 28.2949 45.855 27.9594 45.8999 27.5918C45.9449 27.2242 45.8444 26.8535 45.6198 26.559C45.374 26.348 45.1727 26.0901 45.0277 25.8004C44.8827 25.5106 44.7969 25.1949 44.7753 24.8717C44.4573 20.7238 39.7767 18.8867 37.2138 18.7915C37.0998 18.4979 37.0014 18.1984 36.9191 17.8943C37.5819 17.7131 38.0868 17.3664 38.0868 16.8328V15.1622C38.0573 13.5344 33.3654 13.5359 33.3357 15.1621V16.8328C33.3357 17.366 33.8399 17.7127 34.502 17.8939C34.4196 18.1987 34.3209 18.4988 34.2065 18.793C32.6395 18.9144 31.1202 19.3879 29.7617 20.1783C29.6646 20.2398 29.5956 20.337 29.5696 20.4489C29.5436 20.5609 29.5628 20.6786 29.6229 20.7765C29.683 20.8745 29.7793 20.9448 29.8909 20.9723C30.0025 20.9999 30.1204 20.9823 30.2192 20.9236C31.31 20.2847 32.5203 19.8762 33.7753 19.7235C33.6498 20.0559 33.2538 20.3447 33.3591 20.7237C33.3905 20.8035 33.4418 20.874 33.5083 20.9282C33.5747 20.9824 33.654 21.0186 33.7385 21.0333C35.0101 21.4952 36.4035 21.496 37.6757 21.0357C37.752 21.0268 37.8247 20.9988 37.8874 20.9544C37.95 20.91 38.0004 20.8506 38.0341 20.7816C38.0677 20.7126 38.0835 20.6362 38.0799 20.5595C38.0763 20.4828 38.0535 20.4083 38.0135 20.3427C37.8814 20.1411 37.7581 19.9327 37.6432 19.7195C39.5171 19.9741 42.1849 20.7991 43.4779 23.3602C44.1029 24.5328 43.6645 26.0707 44.9632 27.142C46.0933 30.2435 25.1588 30.1496 26.4585 27.1424C27.0674 26.5885 27.4439 25.8246 27.5124 25.0044C27.5744 24.3271 27.7745 23.6697 28.1003 23.0728C28.3343 22.6642 28.6173 22.2857 28.943 21.9457C29.0229 21.8616 29.0661 21.7493 29.0632 21.6333C29.0603 21.5174 29.0114 21.4073 28.9274 21.3274C28.8433 21.2475 28.731 21.2043 28.615 21.2072C28.4991 21.2101 28.3891 21.259 28.3091 21.343C27.3583 22.2997 26.7696 23.5572 26.6439 24.9001C26.5955 25.5131 26.3163 26.085 25.8627 26.5001C25.7378 26.6433 25.6432 26.8103 25.5844 26.9911C25.5257 27.1718 25.5041 27.3626 25.521 27.5519C25.5378 27.7411 25.5927 27.9251 25.6824 28.0926C25.7721 28.2602 25.8948 28.4078 26.043 28.5268L24.9581 29.399C24.832 29.5283 24.7333 29.6816 24.6679 29.8499C24.6024 30.0182 24.5715 30.1979 24.5771 30.3784L24.5773 32.9504C24.6273 34.9035 28.3713 35.949 35.7177 36.058C43.0517 35.949 46.7954 34.9033 46.8452 32.939V30.3633C46.8482 30.1854 46.8161 30.0087 46.7507 29.8432C46.6853 29.6777 46.5879 29.5268 46.464 29.399ZM35.7113 14.8233C36.2244 14.7868 36.7366 14.9048 37.182 15.1622C36.7366 15.4195 36.2244 15.5376 35.7113 15.5011C35.1982 15.5375 34.6859 15.4195 34.2406 15.1622C34.6859 14.9048 35.1982 14.7867 35.7113 14.8233ZM34.2104 16.8025V16.1279C35.1836 16.4592 36.239 16.4592 37.2121 16.1279V16.8025C37.1179 16.9212 36.5975 17.1717 35.7113 17.1717C34.8251 17.1717 34.3046 16.9212 34.2104 16.8025ZM34.4362 20.3368C34.8476 19.6137 35.1617 18.8394 35.3703 18.0341C35.5968 18.0502 35.8242 18.0502 36.0507 18.0342C36.1687 18.4924 36.3201 18.9414 36.5038 19.3775C36.6527 19.7025 36.8048 20.0274 36.9849 20.337C36.1501 20.5613 35.2709 20.5613 34.4362 20.3368ZM35.7177 35.1833C25.9981 35.0389 25.4608 33.2793 25.4518 32.9391V31.8007C26.9492 32.8578 30.371 33.429 35.7172 33.5141C37.4935 33.5009 39.2679 33.3962 41.0334 33.2004C41.1473 33.1851 41.2506 33.1256 41.3209 33.0348C41.3913 32.9439 41.423 32.829 41.4093 32.7149C41.3956 32.6008 41.3376 32.4967 41.2477 32.4251C41.1579 32.3534 41.0434 32.3201 40.9292 32.3321C39.1984 32.5238 37.4589 32.6263 35.7177 32.6394C26.0245 32.432 25.174 30.888 25.5506 30.0449L26.7955 29.0439C29.4301 30.701 41.9896 30.7025 44.6268 29.0438L45.8703 30.0441C45.9352 30.1452 45.9699 30.2627 45.9705 30.3828C45.9626 30.6473 45.6829 31.4907 42.631 32.0742C42.5183 32.0973 42.4192 32.1638 42.3552 32.2595C42.2913 32.3551 42.2675 32.472 42.2891 32.585C42.3108 32.698 42.376 32.7979 42.4708 32.8631C42.5655 32.9284 42.6822 32.9537 42.7954 32.9335C43.9195 32.7758 44.9998 32.3911 45.9706 31.8029L45.9707 32.928C45.9617 33.2792 45.4249 35.0389 35.7177 35.1833Z" fill="#37392C"/>
</g>
<defs>
<filter id="filter0_dd_34_1514" x="0" y="0" width="72" height="72" filterUnits="userSpaceOnUse" color-interpolation-filters="sRGB">
<feFlood flood-opacity="0" result="BackgroundImageFix"/>
<feColorMatrix in="SourceAlpha" type="matrix" values="0 0 0 0 0 0 0 0 0 0 0 0 0 0 0 0 0 0 127 0" result="hardAlpha"/>
<feMorphology radius="4" operator="erode" in="SourceAlpha" result="effect1_dropShadow_34_1514"/>
<feOffset dy="4"/>
<feGaussianBlur stdDeviation="3"/>
<feComposite in2="hardAlpha" operator="out"/>
<feColorMatrix type="matrix" values="0 0 0 0 0 0 0 0 0 0 0 0 0 0 0 0 0 0 0.1 0"/>
<feBlend mode="normal" in2="BackgroundImageFix" result="effect1_dropShadow_34_1514"/>
<feColorMatrix in="SourceAlpha" type="matrix" values="0 0 0 0 0 0 0 0 0 0 0 0 0 0 0 0 0 0 127 0" result="hardAlpha"/>
<feMorphology radius="3" operator="erode" in="SourceAlpha" result="effect2_dropShadow_34_1514"/>
<feOffset dy="10"/>
<feGaussianBlur stdDeviation="7.5"/>
<feComposite in2="hardAlpha" operator="out"/>
<feColorMatrix type="matrix" values="0 0 0 0 0 0 0 0 0 0 0 0 0 0 0 0 0 0 0.1 0"/>
<feBlend mode="normal" in2="effect1_dropShadow_34_1514" result="effect2_dropShadow_34_1514"/>
<feBlend mode="normal" in="SourceGraphic" in2="effect2_dropShadow_34_1514" result="shape"/>
</filter>
</defs>
</svg>
