<svg width="225" height="225" viewBox="0 0 225 225" fill="none" xmlns="http://www.w3.org/2000/svg">
<rect width="225" height="225" rx="112.5" fill="#FFF6E9"/>
<g clip-path="url(#clip0_1864_20221)">
<mask id="mask0_1864_20221" style="mask-type:luminance" maskUnits="userSpaceOnUse" x="31" y="31" width="163" height="163">
<path d="M193.5 31.5H31.5V193.5H193.5V31.5Z" fill="white"/>
</mask>
<g mask="url(#mask0_1864_20221)">
<path fill-rule="evenodd" clip-rule="evenodd" d="M57.7193 169.423C57.7193 173.599 61.104 176.984 65.2803 176.984C86.2799 176.984 145.151 176.984 166.15 176.984C170.325 176.984 173.711 173.599 173.711 169.423H176.846C178.851 169.423 180.774 168.627 182.192 167.209C183.609 165.791 184.406 163.868 184.406 161.863C184.406 159.858 183.609 157.935 182.192 156.517C180.774 155.099 178.851 154.302 176.846 154.302C151.504 154.302 69.7364 154.302 44.3942 154.302C42.3887 154.302 40.4663 155.099 39.0482 156.517C37.6302 157.935 36.8331 159.858 36.8331 161.863C36.8331 163.868 37.6302 165.791 39.0482 167.209C40.4663 168.627 42.3887 169.423 44.3942 169.423H57.7193Z" fill="#E5ECEF"/>
<path fill-rule="evenodd" clip-rule="evenodd" d="M66.8128 163.721C66.8128 167.898 70.1975 171.283 74.3739 171.283C95.3734 171.283 154.244 171.283 175.244 171.283C179.419 171.283 182.805 167.898 182.805 163.721H185.94C187.944 163.721 189.868 162.925 191.286 161.507C192.703 160.089 193.5 158.166 193.5 156.161C193.5 154.156 192.703 152.233 191.286 150.815C189.868 149.397 187.944 148.6 185.94 148.6C160.598 148.6 78.8299 148.6 53.4877 148.6C51.4822 148.6 49.5598 149.397 48.1417 150.815C46.7237 152.233 45.9266 154.156 45.9266 156.161C45.9266 158.166 46.7237 160.089 48.1417 161.507C49.5598 162.925 51.4822 163.721 53.4877 163.721H66.8128Z" stroke="#72A3B8" stroke-width="0.432" stroke-miterlimit="3" stroke-linecap="round"/>
<path d="M166.086 66.9548L131.157 101.883" stroke="#C93D02" stroke-width="10.8" stroke-miterlimit="3" stroke-linecap="round"/>
<path d="M128.188 66.9548H166.087" stroke="#F86A2E" stroke-width="10.8" stroke-miterlimit="3" stroke-linecap="round"/>
<path fill-rule="evenodd" clip-rule="evenodd" d="M177.812 101.886H55.0874C55.0874 101.886 59.7271 136.118 62.2057 154.415C63.0772 160.847 68.569 165.644 75.0588 165.644C95.3293 165.644 137.57 165.644 157.841 165.644C164.33 165.644 169.822 160.847 170.694 154.415C173.172 136.118 177.812 101.886 177.812 101.886Z" fill="#F86A2E"/>
<path fill-rule="evenodd" clip-rule="evenodd" d="M156.867 101.886H48.2166C48.2166 101.886 52.8563 136.118 55.3349 154.415C56.2064 160.847 61.6982 165.644 68.188 165.644H136.895C143.385 165.644 148.877 160.847 149.749 154.415C152.228 136.118 156.867 101.886 156.867 101.886Z" fill="#FFA17A"/>
<path fill-rule="evenodd" clip-rule="evenodd" d="M185.62 101.887C185.62 100.148 184.931 98.4817 183.701 97.2527C182.472 96.0236 180.805 95.3335 179.067 95.3335C159.297 95.3335 100.395 95.3335 80.6237 95.3335C78.8863 95.3335 77.2184 96.0236 75.9898 97.2527C74.7612 98.4817 74.0702 100.148 74.0702 101.887C74.0702 103.626 74.7612 105.292 75.9898 106.521C77.2184 107.75 78.8863 108.44 80.6237 108.44C100.395 108.44 159.297 108.44 179.067 108.44C180.805 108.44 182.472 107.75 183.701 106.521C184.931 105.292 185.62 103.626 185.62 101.887Z" fill="#FFA17A"/>
<path fill-rule="evenodd" clip-rule="evenodd" d="M162.737 101.887C162.737 100.148 162.047 98.4817 160.818 97.2527C159.589 96.0236 157.922 95.3335 156.184 95.3335C134.898 95.3335 67.8523 95.3335 46.5672 95.3335C44.8282 95.3335 43.162 96.0236 41.933 97.2527C40.704 98.4817 40.013 100.148 40.013 101.887C40.013 103.626 40.704 105.292 41.933 106.521C43.162 107.75 44.8282 108.44 46.5672 108.44C67.8523 108.44 134.898 108.44 156.184 108.44C157.922 108.44 159.589 107.75 160.818 106.521C162.047 105.292 162.737 103.626 162.737 101.887Z" fill="#FCBDA3"/>
<path fill-rule="evenodd" clip-rule="evenodd" d="M86.5217 124.204C86.5217 123.103 86.0843 122.046 85.3045 121.267C84.5258 120.488 83.4696 120.051 82.368 120.051C81.2664 120.051 80.2102 120.488 79.4315 121.267C78.6528 122.046 78.2143 123.103 78.2143 124.204C78.2143 130.672 78.2143 143.08 78.2143 149.548C78.2143 150.65 78.6528 151.706 79.4315 152.485C80.2102 153.264 81.2664 153.702 82.368 153.702C83.4696 153.702 84.5258 153.264 85.3045 152.485C86.0843 151.706 86.5217 150.65 86.5217 149.548C86.5217 143.08 86.5217 130.672 86.5217 124.204Z" fill="#C93D02"/>
<path fill-rule="evenodd" clip-rule="evenodd" d="M106.695 124.204C106.695 123.103 106.258 122.046 105.478 121.267C104.699 120.488 103.643 120.051 102.541 120.051C101.44 120.051 100.383 120.488 99.6047 121.267C98.8261 122.046 98.3876 123.103 98.3876 124.204C98.3876 130.672 98.3876 143.08 98.3876 149.548C98.3876 150.65 98.8261 151.706 99.6047 152.485C100.383 153.264 101.44 153.702 102.541 153.702C103.643 153.702 104.699 153.264 105.478 152.485C106.258 151.706 106.695 150.65 106.695 149.548C106.695 143.08 106.695 130.672 106.695 124.204Z" fill="#C93D02"/>
<path fill-rule="evenodd" clip-rule="evenodd" d="M126.868 124.204C126.868 123.103 126.431 122.046 125.651 121.267C124.872 120.488 123.816 120.051 122.715 120.051C121.613 120.051 120.557 120.488 119.778 121.267C118.999 122.046 118.561 123.103 118.561 124.204C118.561 130.672 118.561 143.08 118.561 149.548C118.561 150.65 118.999 151.706 119.778 152.485C120.557 153.264 121.613 153.702 122.715 153.702C123.816 153.702 124.872 153.264 125.651 152.485C126.431 151.706 126.868 150.65 126.868 149.548C126.868 143.08 126.868 130.672 126.868 124.204Z" fill="#C93D02"/>
<path d="M93.2578 101.883L128.187 66.9548" stroke="#FFA17A" stroke-width="10.8" stroke-miterlimit="3" stroke-linecap="round"/>
<path d="M93.2571 105.332C95.1619 105.332 96.7061 103.788 96.7061 101.883C96.7061 99.9782 95.1619 98.4341 93.2571 98.4341C91.3524 98.4341 89.8082 99.9782 89.8082 101.883C89.8082 103.788 91.3524 105.332 93.2571 105.332Z" fill="#F86A2E"/>
<path fill-rule="evenodd" clip-rule="evenodd" d="M59.3002 66.1632L55.5942 45.7926C55.411 44.7856 54.4446 44.1168 53.4376 44.3C52.4306 44.4832 51.7617 45.4495 51.9449 46.4565L55.651 66.8272C55.8342 67.8342 56.8005 68.503 57.8076 68.3198C58.8146 68.1366 59.4834 67.1703 59.3002 66.1632Z" fill="#FFC039"/>
<path fill-rule="evenodd" clip-rule="evenodd" d="M46.0694 70.9935L40.5527 61.4746C40.0395 60.5891 38.9037 60.2868 38.0182 60.8001C37.1326 61.3133 36.8303 62.4489 37.3436 63.3346L42.8603 72.8534C43.3735 73.739 44.5092 74.0413 45.3948 73.528C46.2804 73.0148 46.5827 71.879 46.0694 70.9935Z" fill="#FFC039"/>
<path fill-rule="evenodd" clip-rule="evenodd" d="M74.3406 67.1257L76.1515 56.2738C76.32 55.2641 75.6371 54.3077 74.6275 54.1392C73.6179 53.9707 72.6614 54.6536 72.493 55.6632L70.6821 66.5151C70.5136 67.5247 71.1965 68.4812 72.2061 68.6496C73.2158 68.8182 74.1722 68.1352 74.3406 67.1257Z" fill="#FFC039"/>
<path fill-rule="evenodd" clip-rule="evenodd" d="M81.5924 95.3347C79.7585 102.486 73.2634 107.78 65.5425 107.78C57.8205 107.78 51.3254 102.486 49.4915 95.3347H81.5924Z" fill="#FFA17A"/>
<path d="M63.2529 103.786C72.4036 103.786 79.8216 96.368 79.8216 87.2174C79.8216 78.0667 72.4036 70.6487 63.2529 70.6487C54.1023 70.6487 46.6842 78.0667 46.6842 87.2174C46.6842 96.368 54.1023 103.786 63.2529 103.786Z" fill="#FC743E"/>
<path d="M65.7798 84.9016C65.2288 83.9293 64.3861 83.4431 63.2517 83.4431C62.1174 83.4431 61.2747 83.9293 60.7237 84.9016C60.1727 85.8739 59.8972 87.5431 59.8972 89.9091C59.8972 92.275 60.1727 93.9442 60.7237 94.9165C61.2747 95.8888 62.1174 96.375 63.2517 96.375C64.3861 96.375 65.2288 95.8888 65.7798 94.9165C66.3308 93.9442 66.6063 92.275 66.6063 89.9091C66.6063 87.5431 66.3308 85.8739 65.7798 84.9016ZM68.3564 96.8612C67.2383 98.3034 65.5367 99.0246 63.2517 99.0246C60.9668 99.0246 59.2571 98.3034 58.1228 96.8612C57.0046 95.4189 56.4455 93.1015 56.4455 89.9091C56.4455 86.7166 57.0046 84.3992 58.1228 82.957C59.2571 81.5147 60.9668 80.7935 63.2517 80.7935C65.5367 80.7935 67.2383 81.5147 68.3564 82.957C69.4908 84.3992 70.058 86.7166 70.058 89.9091C70.058 93.1015 69.4908 95.4189 68.3564 96.8612Z" fill="white"/>
</g>
</g>
<defs>
<clipPath id="clip0_1864_20221">
<rect width="162" height="162" fill="white" transform="translate(31.5 31.5)"/>
</clipPath>
</defs>
</svg>
