<svg width="26" height="25" viewBox="0 0 26 25" fill="none" xmlns="http://www.w3.org/2000/svg">
<path d="M2.0625 21.875C2.0625 22.4966 2.30943 23.0927 2.74897 23.5323C3.18851 23.9718 3.78465 24.2188 4.40625 24.2188H8.3125C8.5197 24.2188 8.71841 24.1364 8.86493 23.9899C9.01144 23.8434 9.09375 23.6447 9.09375 23.4375C9.09375 23.2303 9.01144 23.0316 8.86493 22.8851C8.71841 22.7386 8.5197 22.6562 8.3125 22.6562H4.40625C4.19905 22.6562 4.00034 22.5739 3.85382 22.4274C3.70731 22.2809 3.625 22.0822 3.625 21.875V4.6875C3.625 4.4803 3.70731 4.28159 3.85382 4.13507C4.00034 3.98856 4.19905 3.90625 4.40625 3.90625H5.96875V4.6875C5.96875 4.8947 6.05106 5.09341 6.19757 5.23993C6.34409 5.38644 6.5428 5.46875 6.75 5.46875C6.9572 5.46875 7.15591 5.38644 7.30243 5.23993C7.44894 5.09341 7.53125 4.8947 7.53125 4.6875V3.90625H10.6562V4.6875C10.6562 4.8947 10.7386 5.09341 10.8851 5.23993C11.0316 5.38644 11.2303 5.46875 11.4375 5.46875C11.6447 5.46875 11.8434 5.38644 11.9899 5.23993C12.1364 5.09341 12.2188 4.8947 12.2188 4.6875V3.90625H15.3438V4.6875C15.3438 4.8947 15.4261 5.09341 15.5726 5.23993C15.7191 5.38644 15.9178 5.46875 16.125 5.46875C16.3322 5.46875 16.5309 5.38644 16.6774 5.23993C16.8239 5.09341 16.9062 4.8947 16.9062 4.6875V3.90625H18.4688C18.676 3.90625 18.8747 3.98856 19.0212 4.13507C19.1677 4.28159 19.25 4.4803 19.25 4.6875V9.375C19.25 9.5822 19.3323 9.78091 19.4788 9.92743C19.6253 10.0739 19.824 10.1562 20.0312 10.1562C20.2385 10.1562 20.4372 10.0739 20.5837 9.92743C20.7302 9.78091 20.8125 9.5822 20.8125 9.375V4.6875C20.8125 4.0659 20.5656 3.46976 20.126 3.03022C19.6865 2.59068 19.0904 2.34375 18.4688 2.34375H16.9062V1.5625C16.9062 1.3553 16.8239 1.15659 16.6774 1.01007C16.5309 0.86356 16.3322 0.78125 16.125 0.78125C15.9178 0.78125 15.7191 0.86356 15.5726 1.01007C15.4261 1.15659 15.3438 1.3553 15.3438 1.5625V2.34375H12.2188V1.5625C12.2188 1.3553 12.1364 1.15659 11.9899 1.01007C11.8434 0.86356 11.6447 0.78125 11.4375 0.78125C11.2303 0.78125 11.0316 0.86356 10.8851 1.01007C10.7386 1.15659 10.6562 1.3553 10.6562 1.5625V2.34375H7.53125V1.5625C7.53125 1.3553 7.44894 1.15659 7.30243 1.01007C7.15591 0.86356 6.9572 0.78125 6.75 0.78125C6.5428 0.78125 6.34409 0.86356 6.19757 1.01007C6.05106 1.15659 5.96875 1.3553 5.96875 1.5625V2.34375H4.40625C3.78465 2.34375 3.18851 2.59068 2.74897 3.03022C2.30943 3.46976 2.0625 4.0659 2.0625 4.6875V21.875Z" fill="white"/>
<path d="M6.75 9.375H16.125C16.3322 9.375 16.5309 9.29269 16.6774 9.14618C16.8239 8.99966 16.9062 8.80095 16.9062 8.59375C16.9062 8.38655 16.8239 8.18784 16.6774 8.04132C16.5309 7.89481 16.3322 7.8125 16.125 7.8125H6.75C6.5428 7.8125 6.34409 7.89481 6.19757 8.04132C6.05106 8.18784 5.96875 8.38655 5.96875 8.59375C5.96875 8.80095 6.05106 8.99966 6.19757 9.14618C6.34409 9.29269 6.5428 9.375 6.75 9.375ZM6.75 12.5H14.5625C14.7697 12.5 14.9684 12.4177 15.1149 12.2712C15.2614 12.1247 15.3438 11.926 15.3438 11.7188C15.3438 11.5115 15.2614 11.3128 15.1149 11.1663C14.9684 11.0198 14.7697 10.9375 14.5625 10.9375H6.75C6.5428 10.9375 6.34409 11.0198 6.19757 11.1663C6.05106 11.3128 5.96875 11.5115 5.96875 11.7188C5.96875 11.926 6.05106 12.1247 6.19757 12.2712C6.34409 12.4177 6.5428 12.5 6.75 12.5ZM13 14.8438C13 14.6365 12.9177 14.4378 12.7712 14.2913C12.6247 14.1448 12.426 14.0625 12.2188 14.0625H6.75C6.5428 14.0625 6.34409 14.1448 6.19757 14.2913C6.05106 14.4378 5.96875 14.6365 5.96875 14.8438C5.96875 15.051 6.05106 15.2497 6.19757 15.3962C6.34409 15.5427 6.5428 15.625 6.75 15.625H12.2188C12.426 15.625 12.6247 15.5427 12.7712 15.3962C12.9177 15.2497 13 15.051 13 14.8438ZM6.75 17.1875C6.5428 17.1875 6.34409 17.2698 6.19757 17.4163C6.05106 17.5628 5.96875 17.7615 5.96875 17.9688C5.96875 18.176 6.05106 18.3747 6.19757 18.5212C6.34409 18.6677 6.5428 18.75 6.75 18.75H9.875C10.0822 18.75 10.2809 18.6677 10.4274 18.5212C10.5739 18.3747 10.6562 18.176 10.6562 17.9688C10.6562 17.7615 10.5739 17.5628 10.4274 17.4163C10.2809 17.2698 10.0822 17.1875 9.875 17.1875H6.75ZM11.4375 24.2188C11.498 24.2204 11.5584 24.2141 11.6172 24.2L14.5156 23.5156C14.6568 23.4825 14.7859 23.4106 14.8883 23.3078L23.2883 14.9039C23.7152 14.4619 23.9515 13.8698 23.9461 13.2553C23.9408 12.6408 23.6943 12.0529 23.2597 11.6184C22.8252 11.1838 22.2373 10.9374 21.6228 10.932C21.0083 10.9267 20.4163 11.1629 19.9742 11.5898L11.5742 19.9898C11.4718 20.0922 11.3999 20.2209 11.3664 20.3617L10.6805 23.2578C10.6549 23.3721 10.6552 23.4907 10.6812 23.6049C10.7072 23.7191 10.7583 23.8261 10.8307 23.9181C10.9032 24.0101 10.9953 24.0848 11.1002 24.1368C11.2052 24.1888 11.3204 24.2168 11.4375 24.2188ZM12.832 20.9375L21.0789 12.6945C21.2299 12.5737 21.4202 12.5128 21.6133 12.5235C21.8065 12.5342 21.9889 12.6157 22.1256 12.7525C22.2624 12.8893 22.3439 13.0717 22.3546 13.2648C22.3653 13.4579 22.3044 13.6482 22.1836 13.7992L13.9375 22.043L12.4906 22.3852L12.832 20.9375Z" fill="white"/>
</svg>
