<svg width="26" height="25" viewBox="0 0 26 25" fill="none" xmlns="http://www.w3.org/2000/svg">
<path d="M12.2188 1.5625C12.2188 1.3553 12.1364 1.15659 11.9899 1.01007C11.8434 0.86356 11.6447 0.78125 11.4375 0.78125C11.2303 0.78125 11.0316 0.86356 10.8851 1.01007C10.7386 1.15659 10.6562 1.3553 10.6562 1.5625V2.34375H12.2188V1.5625ZM16.9062 1.5625C16.9062 1.3553 16.8239 1.15659 16.6774 1.01007C16.5309 0.86356 16.3322 0.78125 16.125 0.78125C15.9178 0.78125 15.7191 0.86356 15.5726 1.01007C15.4261 1.15659 15.3438 1.3553 15.3438 1.5625V2.34375H16.9062V1.5625ZM7.53125 1.5625C7.53125 1.3553 7.44894 1.15659 7.30243 1.01007C7.15591 0.86356 6.9572 0.78125 6.75 0.78125C6.5428 0.78125 6.34409 0.86356 6.19757 1.01007C6.05106 1.15659 5.96875 1.3553 5.96875 1.5625V2.34375H7.53125V1.5625ZM2.0625 21.875C2.06435 22.496 2.31188 23.0911 2.75102 23.5302C3.19015 23.9694 3.78522 24.2169 4.40625 24.2188H9.23438C9.07612 23.7965 9.04889 23.3364 9.15625 22.8984L9.84375 20C9.94438 19.5768 10.1608 19.19 10.4688 18.8828L18.8672 10.4844C19.397 9.95254 20.075 9.5931 20.8125 9.45312V4.6875C20.8106 4.06647 20.5631 3.4714 20.124 3.03227C19.6848 2.59313 19.0898 2.3456 18.4688 2.34375H16.9062V4.6875C16.9062 4.8947 16.8239 5.09341 16.6774 5.23993C16.5309 5.38644 16.3322 5.46875 16.125 5.46875C15.9178 5.46875 15.7191 5.38644 15.5726 5.23993C15.4261 5.09341 15.3438 4.8947 15.3438 4.6875V2.34375H12.2188V4.6875C12.2188 4.8947 12.1364 5.09341 11.9899 5.23993C11.8434 5.38644 11.6447 5.46875 11.4375 5.46875C11.2303 5.46875 11.0316 5.38644 10.8851 5.23993C10.7386 5.09341 10.6562 4.8947 10.6562 4.6875V2.34375H7.53125V4.6875C7.53125 4.8947 7.44894 5.09341 7.30243 5.23993C7.15591 5.38644 6.9572 5.46875 6.75 5.46875C6.5428 5.46875 6.34409 5.38644 6.19757 5.23993C6.05106 5.09341 5.96875 4.8947 5.96875 4.6875V2.34375H4.40625C3.78522 2.3456 3.19015 2.59313 2.75102 3.03227C2.31188 3.4714 2.06435 4.06647 2.0625 4.6875V21.875ZM5.96875 7.8125H15.3438C15.551 7.8125 15.7497 7.89481 15.8962 8.04132C16.0427 8.18784 16.125 8.38655 16.125 8.59375C16.125 8.80095 16.0427 8.99966 15.8962 9.14618C15.7497 9.29269 15.551 9.375 15.3438 9.375H5.96875C5.76155 9.375 5.56284 9.29269 5.41632 9.14618C5.26981 8.99966 5.1875 8.80095 5.1875 8.59375C5.1875 8.38655 5.26981 8.18784 5.41632 8.04132C5.56284 7.89481 5.76155 7.8125 5.96875 7.8125ZM5.96875 10.9375H13C13.2072 10.9375 13.4059 11.0198 13.5524 11.1663C13.6989 11.3128 13.7812 11.5115 13.7812 11.7188C13.7812 11.926 13.6989 12.1247 13.5524 12.2712C13.4059 12.4177 13.2072 12.5 13 12.5H5.96875C5.76155 12.5 5.56284 12.4177 5.41632 12.2712C5.26981 12.1247 5.1875 11.926 5.1875 11.7188C5.1875 11.5115 5.26981 11.3128 5.41632 11.1663C5.56284 11.0198 5.76155 10.9375 5.96875 10.9375ZM5.96875 14.0625H10.6562C10.8635 14.0625 11.0622 14.1448 11.2087 14.2913C11.3552 14.4378 11.4375 14.6365 11.4375 14.8438C11.4375 15.051 11.3552 15.2497 11.2087 15.3962C11.0622 15.5427 10.8635 15.625 10.6562 15.625H5.96875C5.76155 15.625 5.56284 15.5427 5.41632 15.3962C5.26981 15.2497 5.1875 15.051 5.1875 14.8438C5.1875 14.6365 5.26981 14.4378 5.41632 14.2913C5.56284 14.1448 5.76155 14.0625 5.96875 14.0625ZM5.96875 17.1875H8.3125C8.5197 17.1875 8.71841 17.2698 8.86493 17.4163C9.01144 17.5628 9.09375 17.7615 9.09375 17.9688C9.09375 18.176 9.01144 18.3747 8.86493 18.5212C8.71841 18.6677 8.5197 18.75 8.3125 18.75H5.96875C5.76155 18.75 5.56284 18.6677 5.41632 18.5212C5.26981 18.3747 5.1875 18.176 5.1875 17.9688C5.1875 17.7615 5.26981 17.5628 5.41632 17.4163C5.56284 17.2698 5.76155 17.1875 5.96875 17.1875Z" fill="white"/>
<path d="M11.5727 19.9867C11.47 20.0891 11.398 20.2182 11.3649 20.3594L10.6774 23.2578C10.6468 23.3874 10.6498 23.5227 10.6862 23.6509C10.7226 23.779 10.7911 23.8957 10.8852 23.9899C10.98 24.0832 11.0967 24.1511 11.2247 24.1874C11.3526 24.2237 11.4876 24.2273 11.6173 24.1977L14.5157 23.5102C14.6569 23.4771 14.786 23.4051 14.8884 23.3024L23.2868 14.9039C23.5045 14.6862 23.6772 14.4278 23.795 14.1433C23.9129 13.8589 23.9735 13.554 23.9735 13.2461C23.9735 12.9382 23.9129 12.6334 23.795 12.3489C23.6772 12.0645 23.5045 11.806 23.2868 11.5883C23.0691 11.3706 22.8106 11.1979 22.5262 11.0801C22.2418 10.9623 21.9369 10.9016 21.629 10.9016C21.3211 10.9016 21.0162 10.9623 20.7318 11.0801C20.4473 11.1979 20.1889 11.3706 19.9712 11.5883L11.5727 19.9867Z" fill="white"/>
</svg>
