<svg width="33" height="32" viewBox="0 0 33 32" fill="none" xmlns="http://www.w3.org/2000/svg">
<path d="M29.6681 26.7405L29.6662 26.7246C28.8211 20.6387 27.5199 18.3268 27.3622 18.0643C26.5459 16.4527 25.1297 16.3234 24.8299 16.3144L23.4544 16.0868C23.3329 16.0661 23 16.0096 20.7377 15.9376C22.3272 14.3045 23.0008 12.0268 23.266 10.7649C26.6798 0.913192 16.5 1.00003 16.5 1.00003C16.5 1.00003 6.32123 0.913192 9.73333 10.7633C9.99821 12.0262 10.6715 14.3078 12.2594 15.9379C9.99932 16.01 9.66625 16.0664 9.54739 16.0865L8.17008 16.3145C7.87022 16.3234 6.45411 16.4529 5.63779 18.0644C5.48013 18.3269 4.1789 20.6387 3.33382 26.7246L3.33199 26.7406C3.3253 26.8038 3.27798 27.3699 3.64324 27.7607C3.72306 27.8502 5.47942 29.7756 8.34581 29.7754C8.54251 29.7753 8.74453 29.7663 8.95134 29.7469C9.50644 30.1793 11.2161 30.9965 16.2061 30.9964C16.2066 30.9964 16.2074 30.9964 16.2077 30.9964C16.2077 30.9964 16.3135 30.9996 16.5014 31C16.675 30.9996 16.7788 30.9968 16.7798 30.9966C21.7813 30.9965 23.4932 30.1793 24.0487 29.7469C24.2558 29.7663 24.4577 29.7754 24.6544 29.7754C27.5201 29.7751 29.2763 27.8508 29.3496 27.7686C29.7221 27.3701 29.6748 26.8038 29.6681 26.7405ZM9.1693 28.7589L9.05522 28.7735C6.21185 29.1372 4.42968 27.205 4.3489 27.1158C4.29696 27.0603 4.2776 26.9211 4.28246 26.8442C5.12945 20.7549 6.44821 18.5716 6.4604 18.5519L6.48374 18.5106C7.0966 17.2849 8.15183 17.2699 8.20067 17.2699C8.20083 17.2699 8.20099 17.2699 8.2013 17.2699L8.24632 17.271L8.85033 17.1711C9.0275 18.8529 9.57376 24.6472 9.1693 28.7589ZM10.6335 10.3709C10.8492 9.557 11.2678 8.73375 12.0749 8.37103C12.0749 8.37103 12.7427 9.72708 16.5 9.72708C20.2573 9.72708 20.925 8.37103 20.925 8.37103C21.7326 8.73391 22.1512 9.55771 22.3668 10.3721C22.121 11.6234 21.3644 14.4101 19.3317 15.8976C19.3233 15.8975 19.3153 15.8972 19.3067 15.897L19.3063 15.9152C19.2345 15.967 19.1623 16.0182 19.0874 16.0667L17.9401 16.8624C17.8125 16.9401 17.4204 17.1414 17.136 17.1414H15.8643C15.5793 17.1414 15.1857 16.9393 15.0594 16.8624L13.8996 16.0582C11.6974 14.6326 10.89 11.6712 10.6335 10.3709ZM16.5124 22.3138C12.944 22.3372 12.3348 18.4054 12.2322 16.8953C12.5702 16.8844 12.9518 16.8733 13.3808 16.8618L14.525 17.6554L14.543 17.6673C14.613 17.7113 15.2451 18.0977 15.8644 18.0977H17.1361C17.7555 18.0977 18.3871 17.7112 18.457 17.6671L19.6189 16.8617C20.0859 16.8742 20.4944 16.8863 20.8524 16.8981C20.7465 22.6945 16.5124 22.3138 16.5124 22.3138ZM22.7368 23.767H19.2393V23.1295H22.7368V23.767ZM28.6447 27.1226C28.5702 27.2049 26.7886 29.1376 23.9448 28.7734L23.8544 28.7456C23.4529 24.6381 23.9969 18.8607 24.1744 17.1751L24.7092 17.2636L24.7539 17.2701L24.7942 17.2699C24.7946 17.2699 24.7949 17.2699 24.7952 17.2699C24.8534 17.2699 25.905 17.2878 26.5163 18.5105L26.5397 18.5518C26.5527 18.5727 27.8641 20.7069 28.7176 26.8449C28.7205 26.8904 28.7114 27.0509 28.6447 27.1226Z" fill="#37392C"/>
<path d="M18.7874 18.1063C18.4019 17.9473 17.5106 18.6912 16.9614 19.2024C16.8499 19.0515 16.6857 18.9537 16.5 18.9537C16.3144 18.9537 16.1502 19.0516 16.0388 19.2024C15.4896 18.6912 14.5981 17.9473 14.2127 18.1063C14.2127 18.1063 13.7181 18.3144 13.7593 19.6529C13.718 20.9915 14.2127 21.1995 14.2127 21.1995C14.5981 21.3586 15.4896 20.6146 16.0388 20.1033C16.1502 20.2542 16.3144 20.3522 16.5 20.3522C16.6857 20.3522 16.8499 20.2543 16.9614 20.1034C17.5106 20.6147 18.4019 21.3586 18.7874 21.1995C18.7874 21.1995 19.2821 20.9915 19.2409 19.6529C19.2821 18.3144 18.7874 18.1063 18.7874 18.1063Z" fill="#37392C"/>
</svg>
