<svg width="152" height="152" viewBox="0 0 152 152" fill="none" xmlns="http://www.w3.org/2000/svg">
<path d="M66.5 81.9375H92.625C92.9399 81.9375 93.242 81.8124 93.4647 81.5897C93.6874 81.367 93.8125 81.065 93.8125 80.75C93.8125 80.4351 93.6874 80.133 93.4647 79.9103C93.242 79.6876 92.9399 79.5625 92.625 79.5625H66.5C66.1851 79.5625 65.883 79.6876 65.6603 79.9103C65.4376 80.133 65.3125 80.4351 65.3125 80.75C65.3125 81.065 65.4376 81.367 65.6603 81.5897C65.883 81.8124 66.1851 81.9375 66.5 81.9375ZM92.625 84.3125H78.375C78.0601 84.3125 77.758 84.4376 77.5353 84.6603C77.3126 84.883 77.1875 85.1851 77.1875 85.5C77.1875 85.815 77.3126 86.117 77.5353 86.3397C77.758 86.5624 78.0601 86.6875 78.375 86.6875H92.625C92.9399 86.6875 93.242 86.5624 93.4647 86.3397C93.6874 86.117 93.8125 85.815 93.8125 85.5C93.8125 85.1851 93.6874 84.883 93.4647 84.6603C93.242 84.4376 92.9399 84.3125 92.625 84.3125ZM66.5 93.8125H92.625C92.9399 93.8125 93.242 93.6874 93.4647 93.4647C93.6874 93.242 93.8125 92.94 93.8125 92.625C93.8125 92.3101 93.6874 92.008 93.4647 91.7853C93.242 91.5626 92.9399 91.4375 92.625 91.4375H66.5C66.1851 91.4375 65.883 91.5626 65.6603 91.7853C65.4376 92.008 65.3125 92.3101 65.3125 92.625C65.3125 92.94 65.4376 93.242 65.6603 93.4647C65.883 93.6874 66.1851 93.8125 66.5 93.8125ZM92.625 96.1875H78.375C78.0601 96.1875 77.758 96.3126 77.5353 96.5353C77.3126 96.758 77.1875 97.0601 77.1875 97.375C77.1875 97.69 77.3126 97.992 77.5353 98.2147C77.758 98.4374 78.0601 98.5625 78.375 98.5625H92.625C92.9399 98.5625 93.242 98.4374 93.4647 98.2147C93.6874 97.992 93.8125 97.69 93.8125 97.375C93.8125 97.0601 93.6874 96.758 93.4647 96.5353C93.242 96.3126 92.9399 96.1875 92.625 96.1875ZM66.5 105.688H92.625C92.9399 105.688 93.242 105.562 93.4647 105.34C93.6874 105.117 93.8125 104.815 93.8125 104.5C93.8125 104.185 93.6874 103.883 93.4647 103.66C93.242 103.438 92.9399 103.313 92.625 103.313H66.5C66.1851 103.313 65.883 103.438 65.6603 103.66C65.4376 103.883 65.3125 104.185 65.3125 104.5C65.3125 104.815 65.4376 105.117 65.6603 105.34C65.883 105.562 66.1851 105.688 66.5 105.688ZM78.375 108.063C78.0601 108.063 77.758 108.188 77.5353 108.41C77.3126 108.633 77.1875 108.935 77.1875 109.25C77.1875 109.565 77.3126 109.867 77.5353 110.09C77.758 110.312 78.0601 110.438 78.375 110.438H90.25C90.5649 110.438 90.867 110.312 91.0897 110.09C91.3124 109.867 91.4375 109.565 91.4375 109.25C91.4375 108.935 91.3124 108.633 91.0897 108.41C90.867 108.188 90.5649 108.063 90.25 108.063H78.375ZM65.3125 116.375C65.3125 116.69 65.4376 116.992 65.6603 117.215C65.883 117.437 66.1851 117.563 66.5 117.563H97.375C97.6899 117.563 97.992 117.437 98.2147 117.215C98.4374 116.992 98.5625 116.69 98.5625 116.375C98.5625 116.06 98.4374 115.758 98.2147 115.535C97.992 115.313 97.6899 115.188 97.375 115.188H66.5C66.1851 115.188 65.883 115.313 65.6603 115.535C65.4376 115.758 65.3125 116.06 65.3125 116.375ZM97.375 119.938H78.375C78.0601 119.938 77.758 120.063 77.5353 120.285C77.3126 120.508 77.1875 120.81 77.1875 121.125C77.1875 121.44 77.3126 121.742 77.5353 121.965C77.758 122.187 78.0601 122.313 78.375 122.313H97.375C97.6899 122.313 97.992 122.187 98.2147 121.965C98.4374 121.742 98.5625 121.44 98.5625 121.125C98.5625 120.81 98.4374 120.508 98.2147 120.285C97.992 120.063 97.6899 119.938 97.375 119.938ZM97.375 127.063H66.5C66.1851 127.063 65.883 127.188 65.6603 127.41C65.4376 127.633 65.3125 127.935 65.3125 128.25C65.3125 128.565 65.4376 128.867 65.6603 129.09C65.883 129.312 66.1851 129.438 66.5 129.438H97.375C97.6899 129.438 97.992 129.312 98.2147 129.09C98.4374 128.867 98.5625 128.565 98.5625 128.25C98.5625 127.935 98.4374 127.633 98.2147 127.41C97.992 127.188 97.6899 127.063 97.375 127.063ZM97.375 131.813H78.375C78.0601 131.813 77.758 131.938 77.5353 132.16C77.3126 132.383 77.1875 132.685 77.1875 133C77.1875 133.315 77.3126 133.617 77.5353 133.84C77.758 134.062 78.0601 134.188 78.375 134.188H97.375C97.6899 134.188 97.992 134.062 98.2147 133.84C98.4374 133.617 98.5625 133.315 98.5625 133C98.5625 132.685 98.4374 132.383 98.2147 132.16C97.992 131.938 97.6899 131.813 97.375 131.813ZM49.875 79.5625H35.625C35.3101 79.5625 35.008 79.6876 34.7853 79.9103C34.5626 80.133 34.4375 80.4351 34.4375 80.75C34.4375 81.065 34.5626 81.367 34.7853 81.5897C35.008 81.8124 35.3101 81.9375 35.625 81.9375H49.875C50.1899 81.9375 50.492 81.8124 50.7147 81.5897C50.9374 81.367 51.0625 81.065 51.0625 80.75C51.0625 80.4351 50.9374 80.133 50.7147 79.9103C50.492 79.6876 50.1899 79.5625 49.875 79.5625ZM49.875 84.3125H35.625C35.3101 84.3125 35.008 84.4376 34.7853 84.6603C34.5626 84.883 34.4375 85.1851 34.4375 85.5C34.4375 85.815 34.5626 86.117 34.7853 86.3397C35.008 86.5624 35.3101 86.6875 35.625 86.6875H49.875C50.1899 86.6875 50.492 86.5624 50.7147 86.3397C50.9374 86.117 51.0625 85.815 51.0625 85.5C51.0625 85.1851 50.9374 84.883 50.7147 84.6603C50.492 84.4376 50.1899 84.3125 49.875 84.3125ZM49.875 91.4375H35.625C35.3101 91.4375 35.008 91.5626 34.7853 91.7853C34.5626 92.008 34.4375 92.3101 34.4375 92.625C34.4375 92.94 34.5626 93.242 34.7853 93.4647C35.008 93.6874 35.3101 93.8125 35.625 93.8125H49.875C50.1899 93.8125 50.492 93.6874 50.7147 93.4647C50.9374 93.242 51.0625 92.94 51.0625 92.625C51.0625 92.3101 50.9374 92.008 50.7147 91.7853C50.492 91.5626 50.1899 91.4375 49.875 91.4375ZM49.875 96.1875H35.625C35.3101 96.1875 35.008 96.3126 34.7853 96.5353C34.5626 96.758 34.4375 97.0601 34.4375 97.375C34.4375 97.69 34.5626 97.992 34.7853 98.2147C35.008 98.4374 35.3101 98.5625 35.625 98.5625H49.875C50.1899 98.5625 50.492 98.4374 50.7147 98.2147C50.9374 97.992 51.0625 97.69 51.0625 97.375C51.0625 97.0601 50.9374 96.758 50.7147 96.5353C50.492 96.3126 50.1899 96.1875 49.875 96.1875ZM49.875 103.313H35.625C35.3101 103.313 35.008 103.438 34.7853 103.66C34.5626 103.883 34.4375 104.185 34.4375 104.5C34.4375 104.815 34.5626 105.117 34.7853 105.34C35.008 105.562 35.3101 105.688 35.625 105.688H49.875C50.1899 105.688 50.492 105.562 50.7147 105.34C50.9374 105.117 51.0625 104.815 51.0625 104.5C51.0625 104.185 50.9374 103.883 50.7147 103.66C50.492 103.438 50.1899 103.313 49.875 103.313ZM49.875 108.063H35.625C35.3101 108.063 35.008 108.188 34.7853 108.41C34.5626 108.633 34.4375 108.935 34.4375 109.25C34.4375 109.565 34.5626 109.867 34.7853 110.09C35.008 110.312 35.3101 110.438 35.625 110.438H49.875C50.1899 110.438 50.492 110.312 50.7147 110.09C50.9374 109.867 51.0625 109.565 51.0625 109.25C51.0625 108.935 50.9374 108.633 50.7147 108.41C50.492 108.188 50.1899 108.063 49.875 108.063ZM49.875 115.188H35.625C35.3101 115.188 35.008 115.313 34.7853 115.535C34.5626 115.758 34.4375 116.06 34.4375 116.375C34.4375 116.69 34.5626 116.992 34.7853 117.215C35.008 117.437 35.3101 117.563 35.625 117.563H49.875C50.1899 117.563 50.492 117.437 50.7147 117.215C50.9374 116.992 51.0625 116.69 51.0625 116.375C51.0625 116.06 50.9374 115.758 50.7147 115.535C50.492 115.313 50.1899 115.188 49.875 115.188ZM49.875 119.938H35.625C35.3101 119.938 35.008 120.063 34.7853 120.285C34.5626 120.508 34.4375 120.81 34.4375 121.125C34.4375 121.44 34.5626 121.742 34.7853 121.965C35.008 122.187 35.3101 122.313 35.625 122.313H49.875C50.1899 122.313 50.492 122.187 50.7147 121.965C50.9374 121.742 51.0625 121.44 51.0625 121.125C51.0625 120.81 50.9374 120.508 50.7147 120.285C50.492 120.063 50.1899 119.938 49.875 119.938ZM49.875 127.063H35.625C35.3101 127.063 35.008 127.188 34.7853 127.41C34.5626 127.633 34.4375 127.935 34.4375 128.25C34.4375 128.565 34.5626 128.867 34.7853 129.09C35.008 129.312 35.3101 129.438 35.625 129.438H49.875C50.1899 129.438 50.492 129.312 50.7147 129.09C50.9374 128.867 51.0625 128.565 51.0625 128.25C51.0625 127.935 50.9374 127.633 50.7147 127.41C50.492 127.188 50.1899 127.063 49.875 127.063ZM49.875 131.813H35.625C35.3101 131.813 35.008 131.938 34.7853 132.16C34.5626 132.383 34.4375 132.685 34.4375 133C34.4375 133.315 34.5626 133.617 34.7853 133.84C35.008 134.062 35.3101 134.188 35.625 134.188H49.875C50.1899 134.188 50.492 134.062 50.7147 133.84C50.9374 133.617 51.0625 133.315 51.0625 133C51.0625 132.685 50.9374 132.383 50.7147 132.16C50.492 131.938 50.1899 131.813 49.875 131.813ZM53.4375 13.0625C52.146 13.0611 50.8742 13.3793 49.7354 13.9887C48.5967 14.5981 47.6265 15.4798 46.9113 16.5552C44.9693 19.4621 43.9343 22.8802 43.9375 26.3762V27.5165C43.9367 29.3914 44.5035 31.2227 45.5633 32.7694C46.6231 34.3161 48.1262 35.5058 49.875 36.1819V54.3281C49.875 56.8551 49.7589 59.4112 49.5303 61.9252L49.015 67.5955C48.9593 68.2099 49.0323 68.8292 49.2292 69.4138C49.4262 69.9985 49.7428 70.5356 50.1589 70.9911C50.575 71.4466 51.0814 71.8104 51.6459 72.0593C52.2104 72.3082 52.8206 72.4368 53.4375 72.4368C54.0544 72.4368 54.6646 72.3082 55.2291 72.0593C55.7936 71.8104 56.3 71.4466 56.7161 70.9911C57.1322 70.5356 57.4488 69.9985 57.6458 69.4138C57.8427 68.8292 57.9157 68.2099 57.86 67.5955L57.3447 61.9252C57.1155 59.3993 57.0005 56.8644 57 54.3281V36.1819C58.7488 35.5058 60.2519 34.3161 61.3117 32.7694C62.3715 31.2227 62.9383 29.3914 62.9375 27.5165V26.3762C62.9408 22.8803 61.9059 19.4622 59.964 16.5552C59.2487 15.4798 58.2784 14.5981 57.1397 13.9887C56.0009 13.3793 54.7291 13.0611 53.4375 13.0625ZM73.6131 36.1051V54.3281C73.6131 56.8655 73.4967 59.421 73.2679 61.9249L72.754 67.5952C72.6978 68.2097 72.7704 68.8293 72.9671 69.4142C73.1638 69.9992 73.4803 70.5367 73.8963 70.9925C74.3124 71.4482 74.8189 71.8123 75.3835 72.0614C75.9481 72.3105 76.5585 72.4391 77.1756 72.4391C77.7927 72.4391 78.4031 72.3105 78.9677 72.0614C79.5324 71.8123 80.0389 71.4482 80.4549 70.9925C80.871 70.5367 81.1874 69.9992 81.3841 69.4142C81.5808 68.8293 81.6534 68.2097 81.5973 67.5952L81.0834 61.9249C80.8534 59.3996 80.7382 56.8651 80.7381 54.3293V36.1297L81.4456 35.4222C82.3574 34.5153 83.0804 33.4365 83.5725 32.2483C84.0646 31.0601 84.3161 29.7861 84.3125 28.5V14.25C84.3125 13.9351 84.1874 13.633 83.9647 13.4103C83.742 13.1876 83.4399 13.0625 83.125 13.0625C82.8101 13.0625 82.508 13.1876 82.2853 13.4103C82.0626 13.633 81.9375 13.9351 81.9375 14.25V27.3125H78.375V14.25C78.375 13.9351 78.2499 13.633 78.0272 13.4103C77.8045 13.1876 77.5024 13.0625 77.1875 13.0625C76.8726 13.0625 76.5705 13.1876 76.3478 13.4103C76.1251 13.633 76 13.9351 76 14.25V27.3125H72.4375V14.25C72.4375 13.9351 72.3124 13.633 72.0897 13.4103C71.867 13.1876 71.5649 13.0625 71.25 13.0625C70.9351 13.0625 70.633 13.1876 70.4103 13.4103C70.1876 13.633 70.0625 13.9351 70.0625 14.25V28.5C70.059 29.7859 70.3106 31.0598 70.8027 32.2478C71.2948 33.4359 72.0177 34.5145 72.9294 35.4214L73.6131 36.1051Z" fill="black"/>
<path d="M138.938 67.6875H135.365C133.708 65.4755 131.558 63.6799 129.087 62.4431C126.615 61.2064 123.889 60.5625 121.125 60.5625C118.361 60.5625 115.635 61.2064 113.163 62.4431C110.692 63.6799 108.542 65.4755 106.885 67.6875H105.688V13.0625C105.685 11.1735 104.934 9.36251 103.598 8.02679C102.262 6.69107 100.451 5.9397 98.5625 5.9375H22.5625C20.6735 5.93962 18.8624 6.69097 17.5267 8.02671C16.191 9.36244 15.4396 11.1735 15.4375 13.0625V20.1875H4.75C4.43506 20.1875 4.13301 20.3126 3.91031 20.5353C3.68761 20.758 3.5625 21.0601 3.5625 21.375V29.6875C3.56462 31.5765 4.31597 33.3876 5.65171 34.7233C6.98744 36.059 8.79848 36.8104 10.6875 36.8125H27.3125V140.125C27.3125 140.385 27.3978 140.638 27.5553 140.845L32.9852 147.97C33.096 148.115 33.2389 148.233 33.4027 148.314C33.5666 148.395 33.747 148.438 33.9298 148.438C34.1127 148.438 34.2931 148.395 34.4569 148.314C34.6208 148.233 34.7637 148.115 34.8745 147.97L39.3597 142.084L43.8449 147.97C43.9557 148.115 44.0986 148.233 44.2624 148.314C44.4263 148.396 44.6067 148.438 44.7895 148.438C44.9724 148.438 45.1528 148.396 45.3166 148.314C45.4805 148.233 45.6234 148.115 45.7342 147.97L50.2191 142.084L54.7019 147.97C54.8126 148.115 54.9554 148.233 55.1192 148.314C55.2829 148.395 55.4632 148.437 55.646 148.438C55.8288 148.438 56.0092 148.395 56.173 148.314C56.3369 148.233 56.4798 148.115 56.5906 147.97L61.0761 142.084L65.5613 147.97C65.6721 148.115 65.815 148.233 65.9788 148.314C66.1426 148.395 66.323 148.438 66.5058 148.438C66.6886 148.438 66.8689 148.395 67.0328 148.314C67.1966 148.233 67.3395 148.115 67.4503 147.97L71.9328 142.084L76.4156 147.969C76.5263 148.114 76.669 148.232 76.8327 148.314C76.9964 148.395 77.1766 148.437 77.3594 148.438C77.5422 148.438 77.7226 148.395 77.8865 148.314C78.0503 148.233 78.1932 148.115 78.304 147.97L82.7892 142.084L87.272 147.97C87.3829 148.115 87.5257 148.233 87.6896 148.314C87.8535 148.395 88.0338 148.438 88.2167 148.438C88.3996 148.438 88.5799 148.395 88.7438 148.314C88.9077 148.233 89.0506 148.115 89.1614 147.97L93.6442 142.085L98.1291 147.97C98.2399 148.115 98.3828 148.233 98.5466 148.314C98.7104 148.395 98.8908 148.437 99.0736 148.437C99.2564 148.437 99.4367 148.395 99.6006 148.314C99.7644 148.233 99.9073 148.115 100.018 147.97L105.445 140.845C105.603 140.638 105.688 140.385 105.688 140.125V103.075L108.681 100.938H138.938C140.827 100.935 142.638 100.184 143.973 98.8483C145.309 97.5126 146.06 95.7015 146.062 93.8125V74.8125C146.06 72.9235 145.309 71.1124 143.973 69.7767C142.638 68.441 140.827 67.6896 138.938 67.6875ZM15.4375 29.6875C15.4375 30.9473 14.9371 32.1555 14.0463 33.0463C13.1555 33.9371 11.9473 34.4375 10.6875 34.4375C9.42772 34.4375 8.21954 33.9371 7.32874 33.0463C6.43794 32.1555 5.9375 30.9473 5.9375 29.6875V22.5625H15.4375V29.6875ZM103.312 67.6875C101.423 67.6896 99.6124 68.441 98.2767 69.7767C96.941 71.1124 96.1896 72.9235 96.1875 74.8125V93.8125C96.1849 94.842 96.4071 95.8596 96.8385 96.7943C97.2699 97.729 97.9001 98.5583 98.6851 99.2242L93.9378 108.719C93.8195 108.956 93.7838 109.226 93.8365 109.485C93.8892 109.745 94.0273 109.98 94.2286 110.152C94.43 110.324 94.6832 110.424 94.9479 110.436C95.2126 110.447 95.4736 110.37 95.6893 110.216L103.312 104.772V139.724L99.0728 145.291L94.5876 139.405C94.4768 139.26 94.3339 139.142 94.1701 139.061C94.0062 138.98 93.8258 138.937 93.643 138.937C93.4601 138.937 93.2797 138.98 93.1159 139.061C92.952 139.142 92.8091 139.26 92.6983 139.405L88.2164 145.291L83.7336 139.406C83.6228 139.261 83.4799 139.143 83.316 139.061C83.1522 138.98 82.9718 138.938 82.7889 138.938C82.6061 138.938 82.4257 138.98 82.2618 139.061C82.098 139.143 81.9551 139.261 81.8443 139.406L77.36 145.291L72.8772 139.405C72.7664 139.26 72.6235 139.142 72.4596 139.061C72.2958 138.98 72.1155 138.938 71.9327 138.938C71.7498 138.938 71.5695 138.98 71.4057 139.061C71.2419 139.142 71.099 139.26 70.9882 139.405L66.5053 145.29L62.0205 139.405C61.9096 139.26 61.7668 139.142 61.6029 139.061C61.4391 138.98 61.2588 138.938 61.0759 138.938C60.8931 138.938 60.7128 138.98 60.549 139.061C60.3851 139.142 60.2422 139.26 60.1314 139.405L55.6465 145.291L51.1637 139.405C51.053 139.26 50.9102 139.142 50.7464 139.061C50.5827 138.98 50.4024 138.938 50.2197 138.938C50.0369 138.938 49.8565 138.98 49.6927 139.061C49.5289 139.142 49.3861 139.26 49.2753 139.405L44.7895 145.291L40.3043 139.405C40.1935 139.26 40.0506 139.142 39.8868 139.061C39.7229 138.979 39.5425 138.937 39.3597 138.937C39.1768 138.937 38.9964 138.979 38.8326 139.061C38.6687 139.142 38.5258 139.26 38.415 139.405L33.9298 145.291L29.6875 139.724V13.0625C29.6887 11.3086 29.0403 9.61646 27.8674 8.3125H98.5625C99.8218 8.31399 101.029 8.81492 101.92 9.70539C102.81 10.5959 103.311 11.8032 103.312 13.0625V67.6875ZM121.125 93.8125C118.072 93.8125 115.087 92.9071 112.548 91.2108C110.01 89.5145 108.031 87.1035 106.863 84.2827C105.694 81.4618 105.388 78.3579 105.984 75.3633C106.58 72.3687 108.05 69.618 110.209 67.459C112.368 65.3001 115.119 63.8298 118.113 63.2341C121.108 62.6385 124.212 62.9442 127.033 64.1126C129.854 65.281 132.265 67.2597 133.961 69.7984C135.657 72.3371 136.562 75.3218 136.562 78.375C136.558 82.4679 134.93 86.3918 132.036 89.2858C129.142 92.1799 125.218 93.8079 121.125 93.8125Z" fill="black"/>
<path d="M121.125 65.3125C118.541 65.3125 116.016 66.0786 113.868 67.5139C111.72 68.9493 110.045 70.9893 109.057 73.3762C108.068 75.7631 107.809 78.3895 108.313 80.9234C108.818 83.4572 110.062 85.7848 111.888 87.6116C113.715 89.4384 116.043 90.6825 118.577 91.1865C121.111 91.6905 123.737 91.4318 126.124 90.4432C128.511 89.4545 130.551 87.7803 131.986 85.6321C133.421 83.484 134.188 80.9585 134.188 78.375C134.184 74.9118 132.806 71.5915 130.357 69.1427C127.908 66.6938 124.588 65.3164 121.125 65.3125ZM125.281 75.5716C125.281 75.8866 125.156 76.1886 124.933 76.4113C124.711 76.634 124.409 76.7591 124.094 76.7591C123.779 76.7591 123.477 76.634 123.254 76.4113C123.031 76.1886 122.906 75.8866 122.906 75.5716V75.4062C122.906 74.9338 122.719 74.4808 122.385 74.1467C122.05 73.8127 121.597 73.625 121.125 73.625C120.653 73.625 120.2 73.8127 119.865 74.1467C119.531 74.4808 119.344 74.9338 119.344 75.4062C119.343 75.695 119.429 75.9773 119.591 76.2164C119.753 76.4555 119.983 76.6403 120.251 76.7466L122.881 77.7985C123.591 78.0797 124.2 78.5684 124.628 79.2008C125.056 79.8333 125.284 80.58 125.281 81.3438C125.28 82.2383 124.99 83.1086 124.456 83.8257C123.921 84.5429 123.169 85.0686 122.313 85.3251V86.6875C122.313 87.0024 122.187 87.3045 121.965 87.5272C121.742 87.7499 121.44 87.875 121.125 87.875C120.81 87.875 120.508 87.7499 120.285 87.5272C120.063 87.3045 119.938 87.0024 119.938 86.6875V85.3248C119.081 85.0685 118.33 84.5432 117.795 83.8268C117.261 83.1103 116.971 82.2407 116.969 81.3467V80.753C116.969 80.438 117.094 80.136 117.317 79.9133C117.539 79.6906 117.841 79.5655 118.156 79.5655C118.471 79.5655 118.773 79.6906 118.996 79.9133C119.219 80.136 119.344 80.438 119.344 80.753V81.3467C119.344 81.8191 119.531 82.2722 119.865 82.6063C120.2 82.9403 120.653 83.128 121.125 83.128C121.597 83.128 122.05 82.9403 122.385 82.6063C122.719 82.2722 122.906 81.8191 122.906 81.3467C122.907 81.058 122.821 80.7757 122.659 80.5366C122.497 80.2975 122.267 80.1127 121.999 80.0063L119.369 78.9545C118.659 78.673 118.05 78.1839 117.621 77.5509C117.193 76.9179 116.966 76.1705 116.969 75.4062C116.97 74.5118 117.26 73.6415 117.794 72.9244C118.329 72.2074 119.081 71.6816 119.938 71.4252V70.0625C119.938 69.7476 120.063 69.4455 120.285 69.2228C120.508 69.0001 120.81 68.875 121.125 68.875C121.44 68.875 121.742 69.0001 121.965 69.2228C122.187 69.4455 122.313 69.7476 122.313 70.0625V71.4252C123.169 71.6816 123.921 72.2074 124.456 72.9244C124.99 73.6415 125.28 74.5118 125.281 75.4062V75.5716Z" fill="black"/>
</svg>
