<svg width="130" height="145" viewBox="0 0 130 145" fill="none" xmlns="http://www.w3.org/2000/svg">
<path d="M129.6 124.375L129.591 124.298C125.509 94.9041 119.225 83.7382 118.463 82.4704C114.521 74.6866 107.681 74.0617 106.233 74.0187L99.5893 72.9194C99.0021 72.8193 97.3942 72.5462 86.468 72.1987C94.1448 64.311 97.398 53.3102 98.6789 47.2151C115.167 -0.366929 66.0004 0.0524635 66.0004 0.0524635C66.0004 0.0524635 16.8385 -0.366929 33.3184 47.2074C34.5977 53.3071 37.8494 64.3268 45.5189 72.1999C34.6031 72.5485 32.9944 72.8205 32.4204 72.9178L25.7681 74.019C24.3199 74.0621 17.4803 74.6874 13.5376 82.4708C12.7761 83.7386 6.49139 94.9041 2.40979 124.298L2.40094 124.375C2.36862 124.681 2.14007 127.415 3.90422 129.303C4.28976 129.735 12.7727 139.034 26.6169 139.033C27.5669 139.033 28.5427 138.989 29.5415 138.896C32.2226 140.984 40.48 144.931 64.581 144.93C64.5833 144.93 64.5871 144.93 64.5887 144.93C64.5887 144.93 65.0997 144.946 66.0069 144.948C66.8457 144.946 67.3471 144.932 67.3517 144.931C91.5084 144.931 99.7767 140.984 102.459 138.896C103.46 138.989 104.435 139.033 105.385 139.033C119.226 139.032 127.708 129.738 128.062 129.341C129.861 127.416 129.633 124.681 129.6 124.375ZM30.5943 134.124L30.0433 134.194C16.3102 135.951 7.70263 126.618 7.31248 126.187C7.06161 125.919 6.96811 125.247 6.99158 124.876C11.0824 95.4655 17.4518 84.9202 17.5107 84.8252L17.6234 84.6259C20.5834 78.7059 25.68 78.6335 25.9159 78.6335C25.9167 78.6335 25.9174 78.6335 25.919 78.6335L26.1364 78.6389L29.0537 78.1564C29.9094 86.2792 32.5477 114.265 30.5943 134.124ZM37.6659 45.3124C38.7078 41.3813 40.7298 37.4051 44.6278 35.6533C44.6278 35.6533 47.8533 42.2028 66.0004 42.2028C84.1475 42.2028 87.3726 35.6533 87.3726 35.6533C91.2729 37.4059 93.2949 41.3848 94.3361 45.3182C93.1491 51.3617 89.4946 64.8208 79.6769 72.0056C79.6365 72.0048 79.598 72.0036 79.5565 72.0025L79.5541 72.0906C79.2075 72.3407 78.8589 72.5877 78.4972 72.822L72.9558 76.6651C72.3394 77.0406 70.446 78.0129 69.072 78.0129H62.93C61.5537 78.0129 59.6525 77.0368 59.0423 76.6651L53.4409 72.7812C42.8044 65.8959 38.9048 51.5926 37.6659 45.3124ZM66.0604 102.995C48.8252 103.108 45.8833 84.1176 45.3877 76.8244C47.0203 76.7717 48.8629 76.7178 50.9353 76.6624L56.4617 80.4954L56.5482 80.5527C56.8864 80.7655 59.9396 82.6316 62.9307 82.6316H69.0727C72.0643 82.6316 75.1147 80.7647 75.4522 80.552L81.064 76.662C83.3198 76.722 85.2929 76.7809 87.0217 76.8374C86.5103 104.833 66.0604 102.995 66.0604 102.995ZM96.1229 110.013H79.2306V106.935H96.1229V110.013ZM124.657 126.22C124.298 126.618 115.692 135.952 101.958 134.194L101.521 134.059C99.5816 114.221 102.209 86.3165 103.066 78.1757L105.65 78.6031L105.866 78.6343L106.06 78.6335C106.062 78.6335 106.063 78.6335 106.065 78.6335C106.346 78.6335 111.425 78.7201 114.378 84.6255L114.49 84.8248C114.554 84.9256 120.887 95.2335 125.01 124.879C125.023 125.099 124.98 125.874 124.657 126.22Z" fill="#37392C"/>
<path d="M77.0478 82.6736C75.1859 81.9052 70.8811 85.4985 68.2286 87.9676C67.6903 87.2384 66.8973 86.7663 66.0004 86.7663C65.1035 86.7663 64.3105 87.2388 63.7726 87.9676C61.12 85.4981 56.8145 81.9052 54.9526 82.6736C54.9526 82.6736 52.564 83.6786 52.7629 90.143C52.5636 96.6082 54.9526 97.6132 54.9526 97.6132C56.8145 98.3812 61.12 94.7879 63.7726 92.3185C64.3109 93.0476 65.1039 93.5205 66.0004 93.5205C66.8973 93.5205 67.6903 93.048 68.2286 92.3189C70.8811 94.7887 75.1859 98.3816 77.0478 97.6132C77.0478 97.6132 79.4372 96.6082 79.2383 90.143C79.4372 83.6786 77.0478 82.6736 77.0478 82.6736Z" fill="#000"/>
</svg>
