<svg width="46" height="46" viewBox="0 0 46 46" fill="none" xmlns="http://www.w3.org/2000/svg">
<rect x="0.5" y="0.5" width="45" height="45" rx="9.5" fill="#DB281C"/>
<rect x="0.5" y="0.5" width="45" height="45" rx="9.5" stroke="#DB281C"/>
<g clip-path="url(#clip0_1875_23499)">
<mask id="mask0_1875_23499" style="mask-type:luminance" maskUnits="userSpaceOnUse" x="13" y="13" width="20" height="20">
<path d="M33 13L33 33L13 33L13 13L33 13Z" fill="white"/>
</mask>
<g mask="url(#mask0_1875_23499)">
<path fill-rule="evenodd" clip-rule="evenodd" d="M15.5065 15.6033C15.5024 15.57 15.4999 15.535 15.4999 15.5L15.4999 13.8333C15.4999 13.6123 15.5877 13.4004 15.7439 13.2441C15.9002 13.0878 16.1122 13 16.3332 13C16.5542 13 16.7662 13.0878 16.9225 13.2441C17.0787 13.4004 17.1665 13.6123 17.1665 13.8333L17.1665 15.5C17.1665 15.535 17.164 15.5692 17.1599 15.6033C17.876 15.7874 18.5107 16.2042 18.9641 16.7883C19.4175 17.3723 19.6639 18.0905 19.6647 18.8299C19.6655 19.5693 19.4205 20.288 18.9683 20.873C18.5161 21.458 17.8823 21.8761 17.1665 22.0617L17.1665 32.1667C17.1665 32.3877 17.0787 32.5996 16.9225 32.7559C16.7662 32.9122 16.5542 33 16.3332 33C16.1122 33 15.9002 32.9122 15.7439 32.7559C15.5877 32.5996 15.4999 32.3877 15.4999 32.1667L15.4999 22.0617C14.7841 21.8761 14.1503 21.458 13.6981 20.873C13.2459 20.288 13.0009 19.5693 13.0017 18.8299C13.0024 18.0905 13.2489 17.3723 13.7023 16.7883C14.1557 16.2042 14.7904 15.7874 15.5065 15.6033ZM14.6665 18.8333C14.6665 19.2754 14.8421 19.6993 15.1547 20.0118C15.4672 20.3244 15.8912 20.5 16.3332 20.5C16.7752 20.5 17.1991 20.3244 17.5117 20.0118C17.8243 19.6993 17.9999 19.2754 17.9999 18.8333C17.9999 18.3913 17.8243 17.9674 17.5117 17.6548C17.1991 17.3423 16.7752 17.1667 16.3332 17.1667C15.8912 17.1667 15.4672 17.3423 15.1547 17.6548C14.8421 17.9674 14.6665 18.3913 14.6665 18.8333ZM27.9999 18.8333C27.9999 19.2754 28.1755 19.6993 28.488 20.0118C28.8006 20.3244 29.2245 20.5 29.6665 20.5C30.1086 20.5 30.5325 20.3244 30.845 20.0118C31.1576 19.6993 31.3332 19.2754 31.3332 18.8333C31.3332 18.3913 31.1576 17.9674 30.845 17.6548C30.5325 17.3423 30.1086 17.1667 29.6665 17.1667C29.2245 17.1667 28.8006 17.3423 28.488 17.6548C28.1755 17.9674 27.9999 18.3913 27.9999 18.8333ZM30.4999 22.0617C31.2156 21.8761 31.8494 21.458 32.3016 20.873C32.7538 20.288 32.9988 19.5693 32.998 18.8299C32.9973 18.0905 32.7508 17.3723 32.2974 16.7883C31.844 16.2042 31.2093 15.7874 30.4932 15.6033C30.4975 15.5691 30.4998 15.5345 30.4999 15.5L30.4999 13.8333C30.4999 13.6123 30.4121 13.4004 30.2558 13.2441C30.0995 13.0878 29.8875 13 29.6665 13C29.4455 13 29.2336 13.0878 29.0773 13.2441C28.921 13.4004 28.8332 13.6123 28.8332 13.8333L28.8332 15.5C28.8332 15.535 28.8357 15.5692 28.8399 15.6033C28.1237 15.7874 27.4891 16.2042 27.0357 16.7883C26.5822 17.3723 26.3358 18.0905 26.335 18.8299C26.3343 19.5693 26.5792 20.288 27.0314 20.873C27.4837 21.458 28.1174 21.8761 28.8332 22.0617L28.8332 32.1667C28.8332 32.3877 28.921 32.5996 29.0773 32.7559C29.2336 32.9122 29.4455 33 29.6665 33C29.8875 33 30.0995 32.9122 30.2558 32.7559C30.4121 32.5996 30.4999 32.3877 30.4999 32.1667L30.4999 22.0617ZM22.9999 25.5C22.5578 25.5 22.1339 25.6756 21.8214 25.9882C21.5088 26.3007 21.3332 26.7246 21.3332 27.1667C21.3332 27.6087 21.5088 28.0326 21.8214 28.3452C22.1339 28.6577 22.5578 28.8333 22.9999 28.8333C23.4419 28.8333 23.8658 28.6577 24.1784 28.3452C24.4909 28.0326 24.6665 27.6087 24.6665 27.1667C24.6665 26.7246 24.4909 26.3007 24.1784 25.9882C23.8658 25.6756 23.4419 25.5 22.9999 25.5ZM19.6665 27.1667C19.6666 26.4276 19.9122 25.7095 20.3647 25.1252C20.8172 24.5408 21.451 24.1234 22.1665 23.9383L22.1665 13.8333C22.1665 13.6123 22.2543 13.4004 22.4106 13.2441C22.5669 13.0878 22.7789 13 22.9999 13C23.2209 13 23.4328 13.0878 23.5891 13.2441C23.7454 13.4004 23.8332 13.6123 23.8332 13.8333L23.8332 23.9383C24.5489 24.1239 25.1827 24.542 25.635 25.127C26.0872 25.712 26.3321 26.4307 26.3314 27.1701C26.3306 27.9095 26.0842 28.6277 25.6307 29.2117C25.1773 29.7958 24.5427 30.2126 23.8265 30.3967C23.8307 30.43 23.8332 30.465 23.8332 30.5L23.8332 32.1667C23.8332 32.3877 23.7454 32.5996 23.5891 32.7559C23.4328 32.9122 23.2209 33 22.9999 33C22.7788 33 22.5669 32.9122 22.4106 32.7559C22.2543 32.5996 22.1665 32.3877 22.1665 32.1667L22.1665 30.5C22.1665 30.465 22.169 30.4308 22.1732 30.3967C21.4562 30.2128 20.8207 29.7956 20.3668 29.2108C19.913 28.6261 19.6666 27.9069 19.6665 27.1667Z" fill="white"/>
</g>
</g>
<defs>
<clipPath id="clip0_1875_23499">
<rect width="20" height="20" fill="white" transform="translate(33 13) rotate(90)"/>
</clipPath>
</defs>
</svg>
