<svg width="43" height="43" viewBox="0 0 43 43" fill="none" xmlns="http://www.w3.org/2000/svg">
<path d="M42.3568 21.51C42.3568 32.0243 34.5653 40.7167 24.4434 42.1272C23.497 42.2585 22.5287 42.3271 21.5458 42.3271C20.4113 42.3271 19.2972 42.2366 18.2122 42.0616C8.30182 40.4658 0.733398 31.8711 0.733398 21.51C0.733398 10.0125 10.0517 0.691406 21.5444 0.691406C33.037 0.691406 42.3568 10.0125 42.3568 21.51Z" fill="#1877F2"/>
<path d="M24.4432 17.4067V21.9418H30.0517L29.1636 28.0509H24.4432V42.1259C23.4968 42.2571 22.5285 42.3257 21.5456 42.3257C20.4111 42.3257 19.297 42.2353 18.212 42.0602V28.0509H13.0396V21.9418H18.212V16.3929C18.212 12.9504 21.0017 10.1584 24.4447 10.1584V10.1614C24.4549 10.1614 24.4636 10.1584 24.4738 10.1584H30.0532V15.4419H26.4075C25.324 15.4419 24.4447 16.3215 24.4447 17.4053L24.4432 17.4067Z" fill="white"/>
</svg>
