<svg width="84" height="64" viewBox="0 0 84 64" fill="none" xmlns="http://www.w3.org/2000/svg">
<g filter="url(#filter0_d_2532_17146)">
<path d="M8 22C8 10.9543 16.9543 2 28 2H78V32C78 43.0457 69.0457 52 58 52H8V22Z" fill="#DB281C" shape-rendering="crispEdges"/>
<path d="M33.312 35V31.88H25.032V29.432L32.904 18.2H36.384V29.216H38.592V31.88H36.384V35H33.312ZM28.32 29.216H33.504V21.584L28.32 29.216ZM42.735 35.168C42.175 35.168 41.711 34.992 41.343 34.64C40.991 34.288 40.815 33.864 40.815 33.368C40.815 32.856 40.991 32.424 41.343 32.072C41.711 31.72 42.175 31.544 42.735 31.544C43.295 31.544 43.751 31.72 44.103 32.072C44.471 32.424 44.655 32.856 44.655 33.368C44.655 33.864 44.471 34.288 44.103 34.64C43.751 34.992 43.295 35.168 42.735 35.168ZM53.6606 35.288C52.5086 35.288 51.4686 35.088 50.5406 34.688C49.6126 34.272 48.8686 33.688 48.3086 32.936C47.7646 32.184 47.4926 31.312 47.4926 30.32C47.4926 29.296 47.7566 28.4 48.2846 27.632C48.8286 26.864 49.5406 26.312 50.4206 25.976C49.6526 25.64 49.0446 25.16 48.5966 24.536C48.1486 23.896 47.9246 23.184 47.9246 22.4C47.9246 21.6 48.1406 20.864 48.5726 20.192C49.0046 19.504 49.6446 18.952 50.4926 18.536C51.3566 18.12 52.4126 17.912 53.6606 17.912C54.9086 17.912 55.9566 18.12 56.8046 18.536C57.6526 18.952 58.2926 19.504 58.7246 20.192C59.1566 20.864 59.3726 21.6 59.3726 22.4C59.3726 23.168 59.1406 23.88 58.6766 24.536C58.2286 25.176 57.6286 25.656 56.8766 25.976C57.7726 26.312 58.4846 26.864 59.0126 27.632C59.5406 28.4 59.8046 29.296 59.8046 30.32C59.8046 31.312 59.5326 32.184 58.9886 32.936C58.4446 33.688 57.7006 34.272 56.7566 34.688C55.8286 35.088 54.7966 35.288 53.6606 35.288ZM53.6606 25.064C54.4926 25.064 55.1486 24.848 55.6286 24.416C56.1086 23.984 56.3486 23.432 56.3486 22.76C56.3486 22.024 56.1086 21.448 55.6286 21.032C55.1646 20.616 54.5086 20.408 53.6606 20.408C52.7966 20.408 52.1326 20.616 51.6686 21.032C51.2046 21.448 50.9726 22.024 50.9726 22.76C50.9726 23.448 51.2046 24.008 51.6686 24.44C52.1486 24.856 52.8126 25.064 53.6606 25.064ZM53.6606 32.72C54.6846 32.72 55.4606 32.472 55.9886 31.976C56.5166 31.464 56.7806 30.824 56.7806 30.056C56.7806 29.208 56.5006 28.544 55.9406 28.064C55.3966 27.584 54.6366 27.344 53.6606 27.344C52.6846 27.344 51.9086 27.584 51.3326 28.064C50.7726 28.544 50.4926 29.208 50.4926 30.056C50.4926 30.824 50.7566 31.464 51.2846 31.976C51.8286 32.472 52.6206 32.72 53.6606 32.72Z" fill="white"/>
</g>
<defs>
<filter id="filter0_d_2532_17146" x="0" y="0" width="84" height="64" filterUnits="userSpaceOnUse" color-interpolation-filters="sRGB">
<feFlood flood-opacity="0" result="BackgroundImageFix"/>
<feColorMatrix in="SourceAlpha" type="matrix" values="0 0 0 0 0 0 0 0 0 0 0 0 0 0 0 0 0 0 127 0" result="hardAlpha"/>
<feOffset dx="-1" dy="5"/>
<feGaussianBlur stdDeviation="3.5"/>
<feComposite in2="hardAlpha" operator="out"/>
<feColorMatrix type="matrix" values="0 0 0 0 0 0 0 0 0 0 0 0 0 0 0 0 0 0 0.25 0"/>
<feBlend mode="normal" in2="BackgroundImageFix" result="effect1_dropShadow_2532_17146"/>
<feBlend mode="normal" in="SourceGraphic" in2="effect1_dropShadow_2532_17146" result="shape"/>
</filter>
</defs>
</svg>
