<svg width="42" height="43" viewBox="0 0 42 43" fill="none" xmlns="http://www.w3.org/2000/svg">
<path d="M21.2087 0.691406H21.1139C9.64611 0.691406 0.349609 9.99064 0.349609 21.4618V21.5566C0.349609 33.0278 9.64611 42.3271 21.1139 42.3271H21.2087C32.6765 42.3271 41.973 33.0278 41.973 21.5566V21.4618C41.973 9.99064 32.6765 0.691406 21.2087 0.691406Z" fill="url(#paint0_linear_2532_17116)"/>
<path d="M27.6018 9.16211H14.7224C11.1642 9.16211 8.26953 12.0576 8.26953 15.6169V27.4032C8.26953 30.9624 11.1642 33.8579 14.7224 33.8579H27.6018C31.16 33.8579 34.0547 30.9624 34.0547 27.4032V15.6169C34.0547 12.0576 31.16 9.16211 27.6018 9.16211ZM10.5459 15.6169C10.5459 13.3136 12.4198 11.4391 14.7224 11.4391H27.6018C29.9044 11.4391 31.7783 13.3136 31.7783 15.6169V27.4032C31.7783 29.7064 29.9044 31.5809 27.6018 31.5809H14.7224C12.4198 31.5809 10.5459 29.7064 10.5459 27.4032V15.6169Z" fill="white"/>
<path d="M21.1619 27.5127C24.4707 27.5127 27.1641 24.8199 27.1641 21.5086C27.1641 18.1974 24.4722 15.5046 21.1619 15.5046C17.8516 15.5046 15.1597 18.1974 15.1597 21.5086C15.1597 24.8199 17.8516 27.5127 21.1619 27.5127ZM21.1619 17.7831C23.2166 17.7831 24.8878 19.4548 24.8878 21.5101C24.8878 23.5654 23.2166 25.2371 21.1619 25.2371C19.1072 25.2371 17.436 23.5654 17.436 21.5101C17.436 19.4548 19.1072 17.7831 21.1619 17.7831Z" fill="white"/>
<path d="M27.7198 16.4747C28.6108 16.4747 29.337 15.7497 29.337 14.857C29.337 13.9642 28.6122 13.2393 27.7198 13.2393C26.8273 13.2393 26.1025 13.9642 26.1025 14.857C26.1025 15.7497 26.8273 16.4747 27.7198 16.4747Z" fill="white"/>
<defs>
<linearGradient id="paint0_linear_2532_17116" x1="6.4306" y1="36.2443" x2="35.9007" y2="6.78432" gradientUnits="userSpaceOnUse">
<stop stop-color="#FAAD4F"/>
<stop offset="0.35" stop-color="#DD2A7B"/>
<stop offset="0.62" stop-color="#9537B0"/>
<stop offset="1" stop-color="#515BD4"/>
</linearGradient>
</defs>
</svg>
