<svg width="42" height="43" viewBox="0 0 42 43" fill="none" xmlns="http://www.w3.org/2000/svg">
<path d="M21.0548 0.691406H21.1496C32.6102 0.691406 41.9139 9.99791 41.9139 21.4618V21.5566C41.9139 33.0206 32.6102 42.3271 21.1496 42.3271H21.0548C9.59429 42.3271 0.290527 33.0206 0.290527 21.5566V21.4618C0.290527 9.99791 9.59429 0.691406 21.0548 0.691406Z" fill="#FFFA00"/>
<path d="M27.6143 17.6998C27.6114 17.9784 27.5822 18.257 27.556 18.5356C27.5472 18.6275 27.5443 18.7209 27.5428 18.8128C27.5399 18.9718 27.6668 19.1162 27.8258 19.106C27.9016 19.1016 27.9789 19.0812 28.0518 19.0564C28.2953 18.9703 28.5359 18.8784 28.778 18.7865C28.9967 18.7019 29.2199 18.6261 29.4459 18.5648C29.6923 18.4977 29.9388 18.4481 30.1896 18.489C30.7 18.5721 31.0325 19.122 30.8458 19.6049C30.7933 19.7405 30.7131 19.8572 30.6169 19.9652C30.4842 20.1125 30.334 20.2379 30.1707 20.3488C29.9782 20.4786 29.7842 20.6055 29.5903 20.7339C29.2665 20.9469 28.9428 21.1584 28.6205 21.3743C28.4864 21.4632 28.3566 21.5581 28.2297 21.6558C28.1597 21.7098 28.0941 21.7725 28.0343 21.8381C27.9205 21.965 27.8578 22.1269 27.868 22.2962C27.8783 22.4756 27.9089 22.6506 27.9585 22.8228C28.1116 23.3596 28.3464 23.8584 28.6307 24.3354C29.3934 25.6089 30.474 26.6037 31.7602 27.4162C32.1131 27.6394 32.4908 27.8202 32.8626 28.0113C32.9151 28.0391 32.9662 28.0668 33.0172 28.0974C33.0682 28.128 33.1135 28.1689 33.147 28.2185C33.1995 28.2929 33.2068 28.3716 33.1616 28.4533C33.1237 28.5233 33.0682 28.5773 33.0084 28.6269C32.9414 28.6823 32.8685 28.729 32.7926 28.7713C32.3581 29.0178 31.8914 29.2016 31.4087 29.33C31.1754 29.3927 30.9421 29.4584 30.7102 29.5269C30.5673 29.5692 30.4331 29.632 30.3004 29.7005C30.0773 29.8158 29.9505 30.001 29.9038 30.2417C29.8776 30.3759 29.8615 30.513 29.8367 30.6472C29.7755 30.9871 29.653 31.1111 29.3205 31.1694C29.2038 31.1898 29.0842 31.2015 28.9661 31.2088C28.6686 31.2249 28.3711 31.2336 28.0737 31.2497C28.0649 31.2497 28.0562 31.2497 28.0489 31.2497C26.8604 31.3197 25.7113 31.7004 24.6919 32.316C24.638 32.3481 24.584 32.3816 24.5286 32.4137C24.1159 32.6631 23.6959 32.9009 23.2453 33.0759C22.7422 33.2714 22.2231 33.3881 21.685 33.4362C21.2315 33.4771 20.7794 33.4713 20.3288 33.4202C19.6536 33.3443 19.0134 33.1474 18.4082 32.8382C18.1268 32.6938 17.8556 32.5333 17.5872 32.3685C17.5727 32.3597 17.5581 32.351 17.542 32.3408C16.4717 31.6887 15.254 31.2934 14.0014 31.2424C13.9926 31.2424 13.9839 31.2424 13.9751 31.2424C13.7126 31.2322 13.4516 31.2219 13.1891 31.2059C13.036 31.1971 12.8829 31.1767 12.7327 31.1359C12.5416 31.0834 12.4031 30.9156 12.3666 30.7216C12.3462 30.6151 12.3302 30.5086 12.3112 30.4022C12.3068 30.3788 12.3068 30.354 12.3025 30.3307C12.2587 30.0185 12.1041 29.7895 11.811 29.6568C11.6317 29.5751 11.4479 29.5094 11.2584 29.4569C10.9317 29.3665 10.6021 29.2862 10.2828 29.171C10.0013 29.0704 9.73008 28.9507 9.46905 28.8078C9.39031 28.7655 9.31447 28.7174 9.24156 28.6678C9.19197 28.6342 9.14532 28.5963 9.10449 28.554C8.97324 28.4169 8.98636 28.2374 9.1351 28.1207C9.22114 28.0522 9.32176 28.007 9.41946 27.9588C10.1005 27.6248 10.7465 27.2339 11.3473 26.77C12.2544 26.0713 13.0229 25.2442 13.6047 24.2479C13.8118 23.8905 13.9838 23.5142 14.1253 23.1262C14.2186 22.8694 14.2945 22.6127 14.3134 22.3428C14.3265 22.1445 14.2595 21.9475 14.1238 21.8031C14.0261 21.6995 13.9124 21.6164 13.7972 21.5333C13.6251 21.4107 13.4516 21.2897 13.2766 21.1744C12.9004 20.9264 12.5227 20.6828 12.1464 20.4363C11.9817 20.3284 11.8227 20.2117 11.6798 20.076C11.5762 19.9768 11.4829 19.8703 11.4085 19.7464C11.254 19.4867 11.2423 19.2198 11.3575 18.9455C11.426 18.7822 11.5544 18.6436 11.7148 18.5692C11.9437 18.4642 12.1829 18.451 12.4235 18.4904C12.6831 18.5327 12.9324 18.6129 13.1789 18.7019C13.4312 18.7924 13.6791 18.8916 13.9299 18.9864C14.0466 19.0301 14.1647 19.0739 14.2886 19.0929C14.3178 19.0972 14.347 19.106 14.3761 19.1045C14.5205 19.1001 14.6401 19.0535 14.6386 18.8595C14.6386 18.7661 14.6357 18.6713 14.6313 18.5779C14.6095 18.1111 14.5817 17.6444 14.5701 17.1776C14.5438 16.066 14.5482 14.9501 14.8384 13.8707C15.0163 13.2099 15.324 12.5958 15.7396 12.0502C16.6015 10.9168 17.7389 10.1977 19.0995 9.81406C19.8432 9.60401 20.6029 9.53545 21.3729 9.55879C22.1006 9.58067 22.8253 9.70466 23.5136 9.94389C24.3303 10.2298 25.0725 10.6441 25.704 11.2319C26.4214 11.9 26.9741 12.6804 27.2745 13.6256C27.4102 14.053 27.4962 14.4907 27.5487 14.9341C27.6581 15.8516 27.6274 16.775 27.6187 17.6969L27.6143 17.6998Z" fill="white"/>
<path d="M21.0872 34.0725C20.813 34.0725 20.536 34.0564 20.2618 34.0258C19.524 33.9426 18.8065 33.7253 18.1327 33.3796C17.8323 33.2249 17.5407 33.0528 17.2709 32.888L17.2272 32.8617C16.218 32.2462 15.0937 31.8975 13.9781 31.8523H13.9519C13.72 31.8421 13.4415 31.8304 13.1557 31.8144C12.9413 31.8013 12.7503 31.7721 12.5738 31.7239C12.167 31.6131 11.852 31.2644 11.7703 30.837C11.7543 30.7568 11.7412 30.6751 11.728 30.5949L11.7135 30.5059C11.7091 30.4797 11.7062 30.4505 11.7032 30.4228C11.6843 30.2886 11.6464 30.2521 11.5633 30.2142C11.4145 30.1471 11.257 30.0902 11.0966 30.045C11.0208 30.0231 10.9449 30.0027 10.8677 29.9823C10.611 29.9137 10.3456 29.8408 10.0787 29.7459C9.76374 29.6336 9.46043 29.498 9.17752 29.3448C9.08419 29.2937 8.99086 29.2369 8.89899 29.1741C8.81295 29.1143 8.73421 29.0501 8.66567 28.9787C8.48193 28.7876 8.39005 28.544 8.40609 28.2916C8.42359 28.0393 8.54755 27.8103 8.75462 27.644C8.88295 27.5419 9.01127 27.4806 9.11481 27.4295L9.14981 27.412C9.81624 27.0853 10.4287 26.7075 10.9741 26.2874C11.8709 25.5959 12.5592 24.8287 13.0769 23.9403C13.2548 23.6355 13.4153 23.2897 13.5509 22.9163C13.6457 22.6567 13.6909 22.4729 13.7025 22.3022C13.704 22.2701 13.6952 22.2395 13.6777 22.222C13.618 22.1592 13.5319 22.0951 13.44 22.0309C13.2563 21.8996 13.0915 21.7858 12.9369 21.6852C12.7065 21.5335 12.4747 21.3832 12.2443 21.233L11.8082 20.9485C11.5866 20.8027 11.4101 20.667 11.2556 20.5211C11.0995 20.3738 10.977 20.2235 10.8808 20.0616C10.627 19.6386 10.5964 19.1718 10.7918 18.7109C10.9201 18.406 11.1622 18.1537 11.4553 18.018C11.7747 17.8707 12.1334 17.8284 12.5184 17.8926C12.8421 17.9465 13.1353 18.0443 13.3817 18.1332C13.5509 18.1945 13.7171 18.2587 13.8848 18.3229C13.9256 18.3389 13.9665 18.355 14.0073 18.3695L14.0015 18.2529C13.984 17.9086 13.9665 17.5512 13.9577 17.1967C13.9315 16.0794 13.9315 14.8905 14.2465 13.7163C14.4419 12.9869 14.7802 12.3043 15.2512 11.6858C16.1612 10.4896 17.3993 9.66402 18.9304 9.23225C19.6917 9.01782 20.4966 8.92738 21.3876 8.95364C22.2057 8.97844 22.9873 9.11993 23.7106 9.37374C24.6498 9.70195 25.4577 10.1789 26.1139 10.7901C26.967 11.5851 27.5342 12.4545 27.8492 13.445C27.9877 13.8826 28.0855 14.3479 28.1482 14.8657C28.2488 15.7074 28.2371 16.5447 28.2269 17.3557L28.2225 17.7058C28.2196 17.9305 28.2021 18.1478 28.1832 18.3593C28.31 18.3112 28.4369 18.2631 28.5579 18.2164C28.8219 18.1157 29.0596 18.037 29.2842 17.9757C29.5714 17.8969 29.9141 17.8254 30.286 17.8867C30.7162 17.9567 31.0909 18.2178 31.3126 18.6029C31.5299 18.9807 31.5663 19.4256 31.4147 19.8224C31.3403 20.015 31.228 20.1944 31.0705 20.3694C30.913 20.5445 30.7307 20.702 30.512 20.8508C30.3618 20.9529 30.2101 21.0521 30.0585 21.1527L29.6064 21.4503C29.3906 21.5918 29.1733 21.7348 28.959 21.8777C28.8438 21.955 28.7227 22.0411 28.6017 22.1359C28.5638 22.1651 28.5244 22.2015 28.4865 22.2439C28.4777 22.2541 28.4748 22.2599 28.4748 22.2614C28.4821 22.3897 28.504 22.5195 28.5433 22.6537C28.6731 23.1045 28.8715 23.5523 29.1529 24.022C29.8193 25.1335 30.7774 26.0759 32.084 26.9C32.3378 27.0605 32.609 27.1976 32.8963 27.3449C32.978 27.3858 33.0596 27.4281 33.1398 27.4704C33.2025 27.5025 33.2638 27.5375 33.3236 27.5725C33.4504 27.6469 33.5583 27.7461 33.6444 27.8686C33.8296 28.1326 33.8485 28.4594 33.6969 28.7424C33.605 28.9116 33.481 29.0254 33.3965 29.0954C33.2856 29.1873 33.1763 29.2529 33.0932 29.2996C32.628 29.5636 32.1147 29.7707 31.5649 29.9166C31.3593 29.9706 31.142 30.0318 30.8839 30.1092C30.7803 30.1398 30.6724 30.1923 30.5806 30.2404C30.5412 30.2609 30.5178 30.2769 30.5018 30.3586C30.4887 30.4242 30.4799 30.4899 30.4697 30.557C30.4595 30.6241 30.4493 30.6897 30.4376 30.7554C30.3312 31.3461 30.0104 31.6685 29.4241 31.7692C29.2914 31.7925 29.1485 31.8085 28.9998 31.8158C28.8525 31.8246 28.7052 31.8304 28.5565 31.8363C28.4063 31.8421 28.2561 31.8479 28.1073 31.8567H28.0913C27.0282 31.9209 25.9637 32.2593 25.0056 32.8384L24.8422 32.9361C24.4266 33.187 23.9717 33.4481 23.4642 33.645C22.9246 33.8551 22.3442 33.9893 21.7391 34.0447C21.5232 34.0637 21.3045 34.0739 21.0857 34.0739L21.0872 34.0725ZM12.9573 30.5628C13.0361 30.5803 13.1236 30.5905 13.2257 30.5964C13.5013 30.6124 13.7711 30.6241 13.9986 30.6314H14.0263C15.3489 30.6868 16.6745 31.0967 17.8601 31.8188L17.9067 31.8479C18.1925 32.023 18.4361 32.1659 18.6869 32.2943C19.2308 32.5729 19.8054 32.748 20.3974 32.8136C20.8101 32.8603 21.2243 32.8646 21.6312 32.8282C22.1299 32.783 22.5863 32.6779 23.0253 32.5073C23.4452 32.3439 23.8448 32.1149 24.2152 31.8917L24.3785 31.7925C25.5058 31.1113 26.7628 30.7131 28.0154 30.6401H28.0402C28.1977 30.6299 28.3538 30.6226 28.5098 30.6168C28.6513 30.611 28.7942 30.6051 28.9356 30.5978C29.0377 30.592 29.1339 30.5818 29.2214 30.5672C29.2273 30.5672 29.2316 30.5657 29.2375 30.5643C29.2389 30.557 29.2404 30.5482 29.2433 30.538C29.2535 30.4826 29.2608 30.4272 29.2696 30.3717C29.2827 30.2886 29.2944 30.2054 29.3104 30.1238C29.395 29.6905 29.6429 29.3565 30.0249 29.1581C30.1591 29.0881 30.3399 29.0005 30.5426 28.9407C30.8124 28.8605 31.0399 28.7963 31.2572 28.7394C31.6057 28.6475 31.9353 28.525 32.2401 28.3762C31.9747 28.2406 31.7034 28.0991 31.438 27.9313C29.9666 27.0021 28.8787 25.9285 28.1117 24.6492C27.7748 24.0876 27.5342 23.545 27.3753 22.9907C27.3126 22.7704 27.2747 22.5487 27.263 22.3299C27.2455 22.0003 27.3592 21.6808 27.5853 21.4299C27.6713 21.3336 27.7646 21.2461 27.8609 21.1732C28.0038 21.0623 28.1467 20.9602 28.2852 20.8668C28.5025 20.721 28.7227 20.5766 28.9414 20.4336L29.3935 20.136C29.5408 20.0398 29.6866 19.9435 29.8325 19.8443C29.9681 19.7524 30.0774 19.659 30.1679 19.5584C30.2247 19.4942 30.2612 19.4402 30.2816 19.3863C30.3093 19.3133 30.2816 19.2448 30.2612 19.2112C30.2233 19.1456 30.162 19.1004 30.0964 19.0901C29.955 19.0668 29.7785 19.1062 29.6093 19.1529C29.4241 19.2039 29.2244 19.2696 28.9983 19.3571C28.7621 19.4475 28.5098 19.5438 28.2561 19.6328C28.1175 19.6809 27.9907 19.7086 27.8653 19.7159C27.6261 19.7291 27.3884 19.643 27.2134 19.4752C27.0311 19.3002 26.9305 19.0551 26.9349 18.8028C26.9363 18.7167 26.9393 18.6015 26.9509 18.4819L26.9611 18.3652C26.983 18.1318 27.0034 17.9115 27.0063 17.6956L27.0107 17.3412C27.0209 16.5345 27.0311 15.7716 26.9407 15.0116C26.8882 14.5711 26.8065 14.1787 26.6913 13.8155C26.442 13.0292 25.9826 12.332 25.287 11.6829C24.7475 11.1796 24.1014 10.8018 23.3111 10.5247C22.7059 10.3131 22.0468 10.1935 21.3541 10.1731C20.5885 10.1483 19.9045 10.2256 19.2644 10.4065C17.9753 10.7697 16.9807 11.4305 16.2239 12.4253C15.8491 12.9169 15.5808 13.4596 15.4262 14.0343C15.1535 15.051 15.1535 16.1406 15.1783 17.169C15.1856 17.5075 15.2031 17.8561 15.2206 18.193L15.2381 18.5548C15.2425 18.6569 15.2454 18.759 15.2468 18.8611C15.2498 19.3585 14.9071 19.7028 14.3938 19.7188C14.3033 19.7188 14.2348 19.7072 14.1969 19.6999C14.0058 19.6707 13.844 19.6094 13.7142 19.5613C13.6267 19.5278 13.5392 19.4942 13.4517 19.4607C13.2913 19.3994 13.1309 19.3381 12.9705 19.2798C12.778 19.2098 12.549 19.1339 12.323 19.096C12.132 19.0653 12.0284 19.0989 11.9672 19.1266C11.9526 19.1339 11.9293 19.1558 11.9161 19.1864C11.868 19.3002 11.8826 19.3615 11.9278 19.4373C11.9672 19.503 12.0226 19.5686 12.0955 19.6386C12.1961 19.7334 12.3172 19.8268 12.4761 19.9304L12.9092 20.2133C13.1426 20.365 13.3759 20.5168 13.6077 20.6699C13.7754 20.7808 13.9519 20.9018 14.1488 21.0419C14.2844 21.1396 14.4302 21.2461 14.5644 21.3891C14.8137 21.6545 14.9435 22.0178 14.9187 22.3883C14.8939 22.7588 14.786 23.0914 14.6956 23.3393C14.5337 23.7813 14.3442 24.1912 14.1298 24.5588C13.5392 25.5711 12.7284 26.4785 11.7178 27.2574C11.1826 27.6702 10.5891 28.0466 9.95185 28.3762C10.1225 28.4594 10.3018 28.5352 10.4885 28.6009C10.7102 28.6796 10.9406 28.7424 11.1856 28.808C11.2643 28.8299 11.3445 28.8503 11.4233 28.8722C11.642 28.9334 11.8578 29.0108 12.0634 29.1041C12.5403 29.32 12.8334 29.7153 12.9078 30.2477C12.9107 30.2667 12.9122 30.2857 12.9136 30.3032V30.3002L12.9282 30.3951C12.9369 30.452 12.9471 30.5088 12.9573 30.5643V30.5628Z" fill="#1D1D1B"/>
</svg>
