<svg width="43" height="43" viewBox="0 0 43 43" fill="none" xmlns="http://www.w3.org/2000/svg">
<path d="M21.592 0.691406H21.4972C10.0294 0.691406 0.73291 9.99064 0.73291 21.4618V21.5566C0.73291 33.0278 10.0294 42.3271 21.4972 42.3271H21.592C33.0598 42.3271 42.3563 33.0278 42.3563 21.5566V21.4618C42.3563 9.99064 33.0598 0.691406 21.592 0.691406Z" fill="black"/>
<path d="M32.0975 17.2275V21.1587C31.4106 21.0916 30.5182 20.9355 29.5309 20.5737C28.2418 20.1011 27.2823 19.4549 26.6538 18.9546V26.9001L26.6377 26.8753C26.6479 27.0329 26.6538 27.1933 26.6538 27.3552C26.6538 31.301 23.4441 34.5131 19.498 34.5131C15.5519 34.5131 12.3423 31.301 12.3423 27.3552C12.3423 23.4094 15.5519 20.1959 19.498 20.1959C19.8845 20.1959 20.2636 20.2266 20.634 20.2864V24.1607C20.2782 24.0338 19.8961 23.9652 19.498 23.9652C17.63 23.9652 16.109 25.4852 16.109 27.3552C16.109 29.2253 17.63 30.7452 19.498 30.7452C21.3661 30.7452 22.887 29.2238 22.887 27.3552C22.887 27.2852 22.8856 27.2152 22.8812 27.1452V11.7048H26.8083C26.8229 12.0374 26.836 12.3729 26.8506 12.7055C26.8769 13.3605 27.1102 13.9892 27.5171 14.5041C27.9939 15.1094 28.6982 15.8125 29.687 16.3741C30.613 16.8993 31.4821 17.1239 32.0975 17.2304V17.2275Z" fill="#FF004F"/>
<path d="M30.7469 14.0358V17.967C30.06 17.8999 29.1676 17.7438 28.1803 17.3821C26.8912 16.9094 25.9317 16.2632 25.3032 15.7629V23.7084L25.2871 23.6836C25.2973 23.8412 25.3032 24.0016 25.3032 24.1636C25.3032 28.1093 22.0935 31.3214 18.1474 31.3214C14.2014 31.3214 10.9917 28.1093 10.9917 24.1636C10.9917 20.2178 14.2014 17.0043 18.1474 17.0043C18.5339 17.0043 18.913 17.0349 19.2834 17.0947V20.969C18.9276 20.8421 18.5455 20.7735 18.1474 20.7735C16.2794 20.7735 14.7584 22.2935 14.7584 24.1636C14.7584 26.0336 16.2794 27.5536 18.1474 27.5536C20.0155 27.5536 21.5365 26.0322 21.5365 24.1636C21.5365 24.0935 21.535 24.0235 21.5306 23.9535V8.51025H25.4577C25.4723 8.84284 25.4854 9.17834 25.5 9.51092C25.5263 10.1659 25.7596 10.7946 26.1665 11.3095C26.6433 11.9149 27.3477 12.618 28.3364 13.1796C29.2624 13.7032 30.1315 13.9293 30.7469 14.0358Z" fill="#00F7EF"/>
<path d="M31.6063 15.7541V19.6853C30.9194 19.6182 30.027 19.4621 29.0397 19.1003C27.7506 18.6277 26.7911 17.9815 26.1625 17.4812V25.4267L26.1465 25.4019C26.1567 25.5595 26.1625 25.7199 26.1625 25.8818C26.1625 29.8276 22.9529 33.0397 19.0068 33.0397C15.0607 33.0397 11.8511 29.8276 11.8511 25.8818C11.8511 21.9361 15.0607 18.7225 19.0068 18.7225C19.3932 18.7225 19.7724 18.7532 20.1428 18.813V22.6873C19.787 22.5604 19.4049 22.4918 19.0068 22.4918C17.1388 22.4918 15.6178 24.0118 15.6178 25.8818C15.6178 27.7519 17.1388 29.2719 19.0068 29.2719C20.8749 29.2719 22.3958 27.7504 22.3958 25.8818C22.3958 25.8118 22.3944 25.7418 22.39 25.6718V10.2314H26.3171C26.3317 10.564 26.3448 10.8995 26.3594 11.2321C26.3857 11.8871 26.619 12.5158 27.0258 13.0307C27.5027 13.636 28.207 14.3391 29.1957 14.9007C30.1217 15.4244 30.9909 15.6505 31.6063 15.757V15.7541Z" fill="white"/>
</svg>
