<svg width="43" height="43" viewBox="0 0 43 43" fill="none" xmlns="http://www.w3.org/2000/svg">
<path d="M42.0497 21.5092C42.0497 10.0445 32.7585 0.750488 21.2971 0.750488C9.83572 0.750488 0.544434 10.0445 0.544434 21.5092C0.544434 32.974 9.83572 42.268 21.2971 42.268C32.7585 42.268 42.0497 32.974 42.0497 21.5092Z" fill="#DD242A"/>
<path d="M30.1062 30.7035C29.4879 30.7706 28.855 30.7822 28.2484 30.7808C23.5163 30.7764 18.7842 30.772 14.0535 30.7691C12.5646 30.7691 10.9431 30.721 9.79248 29.7743C8.49608 28.705 8.2263 26.851 8.12131 25.1735C7.97548 22.8746 7.96381 20.5684 8.08339 18.268C8.14901 17.0048 8.26421 15.7109 8.80815 14.5673C9.19896 13.7461 9.85081 13.008 10.6849 12.62C11.6547 12.1692 12.6696 12.2494 13.7138 12.248C16.2132 12.2451 18.7127 12.2436 21.2122 12.2407C23.8108 12.2378 26.4109 12.2363 29.0096 12.2334C30.2374 12.2334 31.5557 12.2582 32.5576 12.9686C33.851 13.8846 34.2025 15.6278 34.3643 17.2046C34.6633 20.1089 34.6677 23.0438 34.376 25.9481C34.255 27.1457 34.0537 28.4118 33.2648 29.3206C32.4832 30.2221 31.3238 30.5693 30.1077 30.702L30.1062 30.7035Z" fill="white"/>
<path d="M25.5287 21.5092L18.4766 17.4365V25.5819L25.5287 21.5092Z" fill="#DD242A"/>
</svg>
