<svg width="22" height="22" viewBox="0 0 22 22" fill="none" xmlns="http://www.w3.org/2000/svg">
<path d="M11 0C8.82441 0 6.69767 0.645139 4.88873 1.85383C3.07979 3.06253 1.66989 4.78049 0.83733 6.79048C0.00476617 8.80047 -0.213071 11.0122 0.211367 13.146C0.635804 15.2798 1.68345 17.2398 3.22183 18.7782C4.76021 20.3165 6.72022 21.3642 8.85401 21.7886C10.9878 22.2131 13.1995 21.9952 15.2095 21.1627C17.2195 20.3301 18.9375 18.9202 20.1462 17.1113C21.3549 15.3023 22 13.1756 22 11C22 8.08262 20.8411 5.28472 18.7782 3.22183C16.7153 1.15893 13.9174 0 11 0ZM16.707 8.707L9.707 15.707C9.51947 15.8945 9.26517 15.9998 9 15.9998C8.73484 15.9998 8.48053 15.8945 8.293 15.707L5.293 12.707C5.11085 12.5184 5.01005 12.2658 5.01233 12.0036C5.01461 11.7414 5.11978 11.4906 5.30518 11.3052C5.49059 11.1198 5.74141 11.0146 6.0036 11.0123C6.2658 11.01 6.5184 11.1108 6.707 11.293L9 13.586L15.293 7.293C15.4816 7.11084 15.7342 7.01005 15.9964 7.01232C16.2586 7.0146 16.5094 7.11977 16.6948 7.30518C16.8802 7.49059 16.9854 7.7414 16.9877 8.0036C16.99 8.26579 16.8892 8.5184 16.707 8.707Z" fill="#63AA08"/>
</svg>
