<svg width="219" height="168" viewBox="0 0 219 168" fill="none" xmlns="http://www.w3.org/2000/svg">
<path d="M57.4217 117.646L52.2678 123.685C46.299 123.06 41.6289 118 41.6289 111.867V49.9981C41.6286 49.9002 41.6477 49.8032 41.685 49.7128C41.7224 49.6223 41.7772 49.5401 41.8464 49.4709C41.9156 49.4017 41.9978 49.3469 42.0883 49.3095C42.1787 49.2722 42.2757 49.2531 42.3735 49.2534V106.511C42.3737 107.974 42.6619 109.422 43.2216 110.773C43.7814 112.124 44.6018 113.351 45.6361 114.385C46.6703 115.419 47.898 116.239 49.2492 116.799C50.6003 117.358 52.0485 117.646 53.5109 117.646H57.4217ZM159.504 117.646L161.718 123.749H78.7845L81.0771 117.646H159.504ZM207.692 69.4114V92.457C207.69 94.5612 206.853 96.5785 205.365 98.0664C203.877 99.5542 201.86 100.391 199.756 100.393H191.635C190.577 100.392 189.562 99.9707 188.813 99.2222C188.065 98.4736 187.644 97.4587 187.642 96.4001C187.642 95.7363 187.378 95.0999 186.908 94.6305C186.439 94.1611 185.803 93.8971 185.139 93.8965H179.879C179.216 93.8971 178.579 94.1611 178.11 94.6305C177.64 95.0999 177.376 95.7363 177.376 96.4001V111.867C177.375 112.469 177.33 113.07 177.241 113.665L175.221 111.935C176.148 110.278 176.633 108.41 176.631 106.511V91.044C176.631 90.6174 176.715 90.195 176.878 89.8009C177.041 89.4068 177.281 89.0487 177.582 88.747C177.884 88.4454 178.242 88.2061 178.636 88.0429C179.03 87.8797 179.453 87.7957 179.879 87.7957H185.139C185.565 87.7957 185.988 87.8797 186.382 88.0429C186.776 88.2061 187.134 88.4454 187.436 88.747C187.737 89.0487 187.977 89.4068 188.14 89.8009C188.303 90.195 188.387 90.6174 188.387 91.044C188.387 91.4706 188.471 91.893 188.634 92.2871C188.797 92.6812 189.037 93.0393 189.338 93.341C189.64 93.6426 189.998 93.8819 190.392 94.0451C190.786 94.2083 191.209 94.2923 191.635 94.2923H199.756C201.663 94.2918 203.493 93.5336 204.841 92.1845C206.19 90.8353 206.948 89.0056 206.947 87.098V68.658L207.035 68.6697C207.216 68.6918 207.383 68.7795 207.504 68.9161C207.625 69.0527 207.692 69.2289 207.692 69.4114Z" fill="black"/>
<path d="M72.3163 73.7353L73.4409 71.756C65.3182 74.6675 58.9077 77.3736 58.9077 78.6625C58.9077 79.8675 64.3918 80.5728 71.7437 80.9336L72.3163 73.7353ZM114.187 70.1194C113.685 66.0991 110.008 60.0686 106.649 61.0736C106.649 61.0736 99.5687 63.1606 90.8618 65.9277L89.8311 69.6693L90.2429 81.2267C99.6019 81.1404 107.769 80.7524 109.162 80.3023C112.68 79.1651 114.69 74.1397 114.187 70.1194Z" fill="#FF7D14"/>
<path d="M175.16 112.047C176.127 110.362 176.634 108.453 176.631 106.51V91.0428C176.631 90.6163 176.715 90.1939 176.878 89.7998C177.042 89.4057 177.281 89.0476 177.582 88.746C177.884 88.4443 178.242 88.2051 178.636 88.0418C179.03 87.8786 179.453 87.7946 179.879 87.7946H185.138C185.565 87.7946 185.987 87.8786 186.381 88.0418C186.775 88.2051 187.134 88.4443 187.435 88.746C187.737 89.0476 187.976 89.4057 188.139 89.7998C188.302 90.1939 188.386 90.6163 188.386 91.0428C188.386 91.9043 188.729 92.7305 189.338 93.3396C189.947 93.9488 190.773 94.291 191.635 94.291H199.755C201.663 94.291 203.492 93.5332 204.841 92.1844C206.19 90.8356 206.947 89.0061 206.947 87.0986V64.052C206.947 62.1444 206.19 60.315 204.841 58.9662C203.492 57.6173 201.663 56.8596 199.755 56.8596H191.635C190.773 56.8596 189.947 57.2018 189.338 57.8109C188.729 58.4201 188.386 59.2463 188.386 60.1077C188.386 60.9692 188.044 61.7954 187.435 62.4045C186.826 63.0137 186 63.3559 185.138 63.356H179.879C179.018 63.356 178.192 63.0138 177.582 62.4046C176.973 61.7954 176.631 60.9692 176.631 60.1077V44.6402C176.631 41.6866 175.458 38.854 173.369 36.7655C171.281 34.677 168.448 33.5037 165.495 33.5037H53.5097C50.5561 33.5037 47.7234 34.677 45.6349 36.7655C43.5464 38.854 42.3731 41.6866 42.373 44.6402V106.51C42.3731 109.464 43.5464 112.297 45.6349 114.385C47.7234 116.474 50.5561 117.647 53.5097 117.647H57.2076M81.1538 117.647H159.545M196.43 78.3595C195.879 78.3595 195.341 78.1962 194.883 77.8903C194.425 77.5843 194.068 77.1495 193.857 76.6408C193.647 76.1321 193.592 75.5723 193.699 75.0322C193.806 74.4922 194.072 73.9961 194.461 73.6067C194.85 73.2174 195.346 72.9522 195.886 72.8448C196.426 72.7374 196.986 72.7925 197.495 73.0032C198.004 73.2139 198.438 73.5708 198.744 74.0286C199.05 74.4865 199.214 75.0247 199.214 75.5754C199.214 76.3138 198.92 77.0219 198.398 77.544C197.876 78.0661 197.168 78.3595 196.43 78.3595Z" stroke="black" stroke-width="1.48888" stroke-linecap="round" stroke-linejoin="round"/>
<path d="M27.9019 151.839C27.9019 151.839 68.0357 106.233 69.4039 102.584C70.7721 98.9358 71.2281 77.0446 72.5964 73.3961C73.9647 69.7476 76.2449 67.0112 76.2449 67.0112L78.9812 65.6431" stroke="black" stroke-width="1.48888" stroke-linecap="round" stroke-linejoin="round"/>
<path d="M76.1571 81.5405C76.3744 80.6716 77.0261 71.5478 77.4605 69.81C77.895 68.0722 81.1534 61.5551 81.8052 61.1206C82.457 60.6862 85.4981 60.4689 86.1499 60.9034M82.2397 81.106C82.6741 80.2371 83.7603 68.5065 83.9775 66.9859C84.1947 65.4652 87.6704 57.4277 88.5394 57.2104C89.4085 56.9931 91.7978 57.2104 92.4495 57.8622C93.1012 58.514 89.8427 68.2079 89.8427 69.1175C89.8427 70.0271 89.4083 80.2372 90.2772 82.1922C91.1461 84.1472 95.2736 85.0163 95.9253 84.799C96.577 84.5818 106.135 82.1922 106.787 82.6267C107.439 83.0611 107.221 85.8851 107.221 86.754C107.221 87.623 99.1838 93.4883 96.7942 95.6607C94.4047 97.833 85.2809 105.219 84.8464 106.74C84.412 108.26 65.915 158.48 65.915 158.48M154.45 84.3918C154.45 84.3918 146.301 73.2786 144.819 71.7968C143.337 70.3149 135.188 64.0176 135.188 64.0176C133.335 65.8698 135.558 70.0398 135.928 71.1036C136.299 72.1674 146.301 85.5031 146.671 86.985C147.042 88.4668 144.449 97.3572 144.449 97.3572L136.692 87.5772C136.692 87.5772 135.008 92.7321 136.106 94.5844C137.204 96.4366 142.596 107.53 145.56 108.741C148.523 109.952 159.266 116.991 159.266 116.991L177.418 167" stroke="black" stroke-width="1.48888" stroke-linecap="round" stroke-linejoin="round"/>
<path d="M147.864 75.5754L152.599 77.3534C152.599 77.3534 160.748 85.1327 161.119 86.244C161.489 87.3553 170.009 106.618 171.491 108.741C172.973 110.864 217.426 146.255 217.426 146.255" stroke="black" stroke-width="1.48888" stroke-linecap="round" stroke-linejoin="round"/>
<path d="M134.687 64.7776C134.687 64.7776 119.63 48.2448 115.253 44.3831C110.877 40.5215 98.2622 41.8088 98.2622 41.8088L132.244 81.9695L139.253 76.0077L134.687 64.7776Z" fill="black"/>
<path d="M132.245 81.9697L144.449 97.3571" stroke="black" stroke-width="1.48888" stroke-linecap="round" stroke-linejoin="round"/>
<path d="M68.0129 57.5783C70.9276 57.5783 73.2904 55.0132 73.2904 51.8491C73.2904 48.6849 70.9276 46.1199 68.0129 46.1199C65.0982 46.1199 62.7354 48.6849 62.7354 51.8491C62.7354 55.0132 65.0982 57.5783 68.0129 57.5783Z" fill="#D81D1D"/>
<path d="M118.529 107.519C121.466 107.519 123.846 105.229 123.846 102.403C123.846 99.578 121.466 97.2876 118.529 97.2876C115.593 97.2876 113.213 99.578 113.213 102.403C113.213 105.229 115.593 107.519 118.529 107.519Z" fill="#D81D1D"/>
<path d="M116.653 17.7336C123.264 17.7336 128.624 13.9877 128.624 9.36681C128.624 4.74595 123.264 1 116.653 1C110.041 1 104.682 4.74595 104.682 9.36681C104.682 13.9877 110.041 17.7336 116.653 17.7336Z" stroke="black" stroke-width="1.48888" stroke-linecap="round" stroke-linejoin="round"/>
<path d="M128.255 17.9112C126.32 20.7403 122.732 22.3175 117.581 22.596C117.129 22.6224 116.69 22.6341 116.256 22.6341C112.011 22.6341 108.78 21.4409 106.64 19.078C103.084 15.1496 103.908 9.49155 103.946 9.25408C103.973 9.07846 104.062 8.91836 104.197 8.80275C104.332 8.68714 104.504 8.62365 104.682 8.62378H104.728C104.697 8.86973 104.681 9.11749 104.682 9.36549C104.682 13.9887 110.041 17.7324 116.651 17.7324C123.265 17.7324 128.624 13.9887 128.624 9.36549C128.625 9.11749 128.609 8.86973 128.577 8.62378H128.624C128.781 8.62371 128.933 8.67296 129.06 8.76454C129.187 8.85612 129.282 8.98537 129.331 9.13389C129.395 9.33324 130.896 14.0444 128.255 17.9112Z" fill="black"/>
<path d="M115.125 7.17371C117.622 6.87996 119.678 8.64246 117.475 10.6987C115.272 12.755 110.572 10.6987 111.012 7.46746C111.453 4.2362 115.125 2.76744 118.797 3.94245C122.469 5.11745 124.378 8.38222 122.909 11.5233C121.44 14.6643 116.322 17.1081 108.309 15.3647" stroke="black" stroke-width="1.48888" stroke-linecap="round" stroke-linejoin="round"/>
<path d="M75.4787 57.1288C78.3934 57.1288 80.7563 54.5638 80.7563 51.3996C80.7563 48.2355 78.3934 45.6704 75.4787 45.6704C72.564 45.6704 70.2012 48.2355 70.2012 51.3996C70.2012 54.5638 72.564 57.1288 75.4787 57.1288Z" fill="#FF7D14"/>
<path d="M81.7951 56.5649C84.7098 56.5649 87.0727 53.9998 87.0727 50.8357C87.0727 47.6715 84.7098 45.1064 81.7951 45.1064C78.8804 45.1064 76.5176 47.6715 76.5176 50.8357C76.5176 53.9998 78.8804 56.5649 81.7951 56.5649Z" fill="#D81D1D"/>
<path d="M12.0211 67.1621C12.0211 67.1621 9.4935 76.403 7.88999 80.0682C6.28648 83.7333 7.66093 88.5441 12.9297 88.3149C18.1984 88.0857 18.8337 81.6718 17.2562 78.9229C15.6787 76.174 12.2501 68.7657 12.0211 67.1621Z" stroke="black" stroke-width="1.48888" stroke-linecap="round" stroke-linejoin="round"/>
<path d="M8.34816 87.1695C8.34816 87.1695 3.55062 89.3813 2.07757 85.9441C0.16145 81.4733 4.16442 79.1924 6.72804 76.7371C9.24271 74.3288 10.8802 71.1377 10.8802 71.1377M17.0001 87.1695C17.0001 87.1695 21.7975 89.3813 23.2706 85.9441C25.1866 81.4733 21.1837 79.1924 18.6202 76.7371C16.1055 74.3288 13.5937 71.3994 13.5937 71.3994" stroke="black" stroke-width="1.48888" stroke-linecap="round" stroke-linejoin="round"/>
</svg>
