<svg width="260" height="260" viewBox="0 0 260 260" fill="none" xmlns="http://www.w3.org/2000/svg">
<g clip-path="url(#clip0_1957_6014)">
<path d="M129.999 229.222C184.799 229.222 229.222 184.799 229.222 129.999C229.222 75.1999 184.799 30.7762 129.999 30.7762C75.2 30.7762 30.7764 75.1999 30.7764 129.999C30.7764 184.799 75.2 229.222 129.999 229.222Z" fill="#E0E9F9"/>
<path fill-rule="evenodd" clip-rule="evenodd" d="M177.38 147.072L187.566 147.763L176.02 196.069L165.834 195.378L177.38 147.072Z" fill="#3594DC"/>
<path fill-rule="evenodd" clip-rule="evenodd" d="M177.38 147.056C177.38 147.056 190.32 92.929 194.707 74.5448C195.53 71.0647 198.773 68.6944 202.33 68.9359L218.404 70.0272C219.251 70.0847 220.016 70.5148 220.519 71.1918C221.021 71.8688 221.189 72.7312 221.001 73.5504C220.71 74.7786 220.369 76.1736 220.105 77.2902C219.785 78.6488 218.512 79.5835 217.119 79.4889C212.771 79.1937 204.094 78.6046 204.094 78.6046L187.561 147.767L177.379 147.075L177.38 147.056Z" fill="#3594DC"/>
<path fill-rule="evenodd" clip-rule="evenodd" d="M94.3608 182.203L177.993 187.881L176.036 196.067L92.4039 190.389L94.3608 182.203Z" fill="#3594DC"/>
<path fill-rule="evenodd" clip-rule="evenodd" d="M201.952 87.6863L69.1704 78.6714C69.1704 78.6714 74.2386 130.025 76.3612 151.374C76.8892 156.665 81.1362 160.799 86.4357 161.159C106.433 162.516 153.699 165.725 173.696 167.083C178.996 167.443 183.785 163.923 185.001 158.75C189.99 137.884 201.952 87.6863 201.952 87.6863Z" fill="#4FB4F3"/>
<path fill-rule="evenodd" clip-rule="evenodd" d="M107.498 103.671L111.447 141.322C111.725 143.913 114.036 145.791 116.627 145.513C119.217 145.235 121.095 142.923 120.836 140.334L116.886 102.702C116.608 100.111 114.296 98.2334 111.707 98.4925C109.118 98.7517 107.239 101.082 107.498 103.671Z" fill="#1D77C7"/>
<path fill-rule="evenodd" clip-rule="evenodd" d="M107.867 107.157L111.447 141.322C111.725 143.913 114.036 145.791 116.627 145.513C119.217 145.235 121.095 142.923 120.836 140.334L117.256 106.168C116.978 103.578 114.666 101.7 112.077 101.959C109.486 102.237 107.607 104.568 107.867 107.157Z" fill="#3594DC"/>
<path fill-rule="evenodd" clip-rule="evenodd" d="M151.42 105.027L142.439 141.782C141.813 144.311 143.379 146.875 145.909 147.482C148.438 148.107 151.003 146.542 151.608 144.03L160.591 107.257C161.216 104.728 159.649 102.182 157.12 101.557C154.59 100.95 152.045 102.498 151.42 105.027Z" fill="#1D77C7"/>
<path fill-rule="evenodd" clip-rule="evenodd" d="M150.579 108.506L142.437 141.8C141.812 144.329 143.377 146.894 145.908 147.501C148.437 148.126 151.001 146.561 151.607 144.049L159.748 110.755C160.373 108.226 158.808 105.661 156.278 105.055C153.748 104.429 151.185 105.976 150.579 108.506Z" fill="#3594DC"/>
<path d="M184.913 193.56C186.065 185.113 180.151 177.331 171.704 176.179C163.257 175.027 155.475 180.94 154.323 189.387C153.17 197.835 159.084 205.617 167.531 206.769C175.979 207.921 183.761 202.008 184.913 193.56Z" fill="#4FB4F3"/>
<path d="M174.42 192.135C174.782 189.483 172.926 187.04 170.274 186.678C167.623 186.317 165.18 188.173 164.818 190.825C164.456 193.476 166.313 195.919 168.964 196.281C171.616 196.643 174.059 194.786 174.42 192.135Z" fill="white"/>
<path d="M109.193 188.419C110.345 179.972 104.431 172.19 95.984 171.038C87.5368 169.886 79.7549 175.799 78.6026 184.247C77.4503 192.694 83.3639 200.476 91.8111 201.628C100.258 202.78 108.04 196.867 109.193 188.419Z" fill="#4FB4F3"/>
<path d="M98.7002 186.994C99.0619 184.342 97.2056 181.899 94.554 181.538C91.9023 181.176 89.4595 183.032 89.0978 185.684C88.7361 188.336 90.5924 190.778 93.2441 191.14C95.8957 191.502 98.3385 189.645 98.7002 186.994Z" fill="white"/>
<path fill-rule="evenodd" clip-rule="evenodd" d="M102.605 80.847C101.439 98.0129 88.6948 111.651 72.5139 114.636L68.9507 78.5615L102.605 80.847Z" fill="#3594DC"/>
<path d="M64.3249 106.899C80.6945 106.899 93.9647 93.6286 93.9647 77.259C93.9647 60.8893 80.6945 47.6191 64.3249 47.6191C47.9553 47.6191 34.6851 60.8893 34.6851 77.259C34.6851 93.6286 47.9553 106.899 64.3249 106.899Z" fill="#DB281C"/>
<path d="M71.6203 79.5998C71.6203 76.4751 71.1448 74.0975 70.2617 72.3993C69.3787 70.7011 68.0881 69.818 66.3898 69.818C64.7596 69.818 63.469 70.6332 62.586 72.3993C61.7029 74.0975 61.2952 76.4751 61.2952 79.5998C61.2952 82.7245 61.7029 85.1019 62.586 86.8681C63.469 88.5663 64.6916 89.4494 66.3898 89.4494C68.0201 89.4494 69.3107 88.5663 70.2617 86.8681C71.1448 85.1019 71.6203 82.7245 71.6203 79.5998ZM80.6548 79.5998C80.6548 82.3169 80.3152 84.7623 79.568 86.8681C78.8887 88.9738 77.8698 90.7399 76.6471 92.2343C75.3564 93.6608 73.862 94.7477 72.1637 95.4949C70.3976 96.2421 68.4957 96.5818 66.4578 96.5818C64.3521 96.5818 62.4501 96.2421 60.6839 95.4949C58.9178 94.7477 57.4233 93.6608 56.2006 92.2343C54.9779 90.8078 53.9589 89.0418 53.2797 86.8681C52.6004 84.7623 52.2607 82.3169 52.2607 79.5998C52.2607 76.8827 52.6004 74.4373 53.2797 72.3315C53.9589 70.2257 54.9779 68.4595 56.2006 67.0331C57.4913 65.6066 58.9857 64.5197 60.6839 63.7725C62.4501 63.0253 64.3521 62.6855 66.4578 62.6855C68.4957 62.6855 70.3976 63.0932 72.1637 63.7725C73.9299 64.5197 75.4244 65.6066 76.6471 67.0331C77.8698 68.4595 78.8887 70.2257 79.568 72.3315C80.3152 74.4373 80.6548 76.8827 80.6548 79.5998Z" fill="#ED3F07"/>
<path d="M69.8425 76.5026C69.8425 73.3779 69.367 71.0004 68.4839 69.3022C67.6008 67.6039 66.3102 66.7208 64.612 66.7208C62.9817 66.7208 61.6912 67.536 60.8081 69.3022C59.9251 71.0004 59.5174 73.3779 59.5174 76.5026C59.5174 79.6273 59.9251 82.0048 60.8081 83.7709C61.6912 85.4691 62.9138 86.3522 64.612 86.3522C66.2423 86.3522 67.5329 85.4691 68.4839 83.7709C69.367 82.0048 69.8425 79.6273 69.8425 76.5026ZM78.8769 76.5026C78.8769 79.2197 78.5374 81.6651 77.7902 83.7709C77.1109 85.8767 76.092 87.6427 74.8692 89.1372C73.5786 90.5637 72.0841 91.6505 70.3859 92.3978C68.6198 93.145 66.7179 93.4847 64.68 93.4847C62.5742 93.4847 60.6722 93.145 58.9061 92.3978C57.14 91.6505 55.6455 90.5637 54.4228 89.1372C53.2001 87.7107 52.1811 85.9446 51.5018 83.7709C50.8226 81.6651 50.4829 79.2197 50.4829 76.5026C50.4829 73.7855 50.8226 71.3401 51.5018 69.2343C52.1811 67.1285 53.2001 65.3624 54.4228 63.9359C55.7134 62.5094 57.2079 61.4225 58.9061 60.6753C60.6722 59.9281 62.5742 59.5884 64.68 59.5884C66.7179 59.5884 68.6198 59.996 70.3859 60.6753C72.1521 61.4225 73.6465 62.5094 74.8692 63.9359C76.092 65.3624 77.1109 67.1285 77.7902 69.2343C78.5374 71.3401 78.8769 73.7855 78.8769 76.5026Z" fill="white"/>
<path d="M23.583 61.2409C23.495 61.2409 23.3893 61.2233 23.3012 61.2057L6.09284 57.0313C5.44114 56.8728 5.03601 56.2211 5.19453 55.5694C5.35305 54.9177 6.00476 54.5126 6.65646 54.6711L23.8648 58.8455C24.5165 59.004 24.9217 59.6557 24.7631 60.3074C24.6222 60.871 24.1291 61.2409 23.583 61.2409Z" fill="#DB281C"/>
<path d="M42.7835 41.525C42.2903 41.525 41.8323 41.2256 41.6562 40.75L36.425 27.0995C36.1784 26.4655 36.4955 25.7785 37.1295 25.5319C37.7636 25.2854 38.4505 25.6024 38.6971 26.2365L43.9283 39.8869C44.1749 40.521 43.8579 41.2079 43.2238 41.4545C43.0829 41.4898 42.9244 41.525 42.7835 41.525Z" fill="#DB281C"/>
<path d="M29.4571 49.686C29.1401 49.686 28.8406 49.5627 28.594 49.3337L12.2663 33.006C11.7908 32.5304 11.7908 31.7554 12.2663 31.2975C12.7419 30.8219 13.5169 30.8219 13.9748 31.2975L30.3026 47.6252C30.7781 48.1007 30.7781 48.8757 30.3026 49.3337C30.0736 49.5627 29.7742 49.686 29.4571 49.686Z" fill="#DB281C"/>
</g>
<defs>
<clipPath id="clip0_1957_6014">
<rect width="260" height="260" fill="white"/>
</clipPath>
</defs>
</svg>
