<svg xmlns="http://www.w3.org/2000/svg" width="225" height="214" viewBox="0 0 225 214" fill="none">
<rect width="225" height="214" fill="#707070"/>
<g id="Feedback Page">
<rect width="393" height="745" transform="translate(-84 -70)" fill="white"/>
<g id="download (40) 1">
<g id="Cyrcle Ch.Cl">
<path id="Vector" d="M63.8921 32.4611C50.79 69.7212 35.9985 69.3119 13.9905 93.111C-8.01746 116.911 -0.596053 151.202 32.1597 170.651C49.5612 180.983 40.0926 204.5 63.8921 210.828C104.326 221.58 90.7623 194.45 157.554 193.939C224.346 193.427 201.058 150.178 212.83 102.068C223.85 57.0283 181.865 54.2134 172.141 34.5084C149.877 -6.18076 80.2703 -14.1136 63.8921 32.4611Z" fill="#DFC4B3"/>
<path id="Vector_2" d="M28.3214 195.729C32.8441 195.729 36.5105 192.063 36.5105 187.54C36.5105 183.018 32.8441 179.351 28.3214 179.351C23.7987 179.351 20.1323 183.018 20.1323 187.54C20.1323 192.063 23.7987 195.729 28.3214 195.729Z" fill="#DFC4B3"/>
<path id="Vector_3" d="M36.5105 205.966C38.2063 205.966 39.5811 204.591 39.5811 202.895C39.5811 201.199 38.2063 199.824 36.5105 199.824C34.8146 199.824 33.4398 201.199 33.4398 202.895C33.4398 204.591 34.8146 205.966 36.5105 205.966Z" fill="#DFC4B3"/>
<path id="Vector_4" d="M26.7746 66.6604C29.9726 63.4623 29.9725 58.2772 26.7744 55.0793C23.5764 51.8813 18.3913 51.8814 15.1933 55.0795C11.9954 58.2776 11.9955 63.4626 15.1935 66.6606C18.3916 69.8585 23.5767 69.8584 26.7746 66.6604Z" fill="#DFC4B3"/>
<path id="Vector_5" d="M3.66878 65.6637C5.36465 65.6637 6.73942 64.289 6.73942 62.5931C6.73942 60.8972 5.36465 59.5225 3.66878 59.5225C1.97292 59.5225 0.598145 60.8972 0.598145 62.5931C0.598145 64.289 1.97292 65.6637 3.66878 65.6637Z" fill="#DFC4B3"/>
<path id="Vector_6" d="M187.934 33.3496C191.132 30.1515 191.132 24.9665 187.934 21.7685C184.736 18.5705 179.551 18.5706 176.353 21.7687C173.155 24.9668 173.155 30.1518 176.353 33.3498C179.551 36.5477 184.736 36.5477 187.934 33.3496Z" fill="#DFC4B3"/>
<path id="Vector_7" d="M200.48 36.1741C201.679 34.9749 201.679 33.0307 200.48 31.8315C199.28 30.6324 197.336 30.6324 196.137 31.8316C194.938 33.0308 194.938 34.975 196.137 36.1742C197.336 37.3733 199.281 37.3733 200.48 36.1741Z" fill="#DFC4B3"/>
<path id="Vector_8" d="M218.204 129.194C221.596 129.194 224.346 126.444 224.346 123.052C224.346 119.66 221.596 116.91 218.204 116.91C214.812 116.91 212.062 119.66 212.062 123.052C212.062 126.444 214.812 129.194 218.204 129.194Z" fill="#DFC4B3"/>
</g>
<path id="Vector_9" d="M5.12235 192.877H163.699C164.523 192.877 165.19 193.545 165.19 194.369C165.19 195.192 164.523 195.86 163.699 195.86H5.12235C4.29862 195.86 3.63104 195.192 3.63104 194.369C3.63104 193.545 4.29914 192.877 5.12235 192.877ZM172.647 192.877H176.127C176.951 192.877 177.618 193.545 177.618 194.369C177.618 195.192 176.951 195.86 176.127 195.86H172.647C171.824 195.86 171.156 195.192 171.156 194.369C171.156 193.545 171.824 192.877 172.647 192.877ZM184.08 192.877H209.93C210.754 192.877 211.421 193.545 211.421 194.369C211.421 195.192 210.754 195.86 209.93 195.86H184.08C183.257 195.86 182.589 195.192 182.589 194.369C182.589 193.545 183.257 192.877 184.08 192.877ZM69.9946 192.629C82.7205 186.664 84.2453 172.91 83.4169 166.78H108.272C108.272 180.699 109.515 185.421 121.197 192.629H69.9946Z" fill="#212121"/>
<g id="Mask group">
<mask id="mask0_23_5" style="mask-type:luminance" maskUnits="userSpaceOnUse" x="69" y="166" width="53" height="27">
<g id="Group">
<path id="Vector_10" d="M69.9946 192.629C82.7204 186.664 84.2453 172.91 83.4168 166.78H108.272C108.272 180.699 109.515 185.421 121.197 192.629H69.9946Z" fill="#4B7ABE"/>
</g>
</mask>
<g mask="url(#mask0_23_5)">
<g id="Group_2">
<path id="Vector_11" d="M82.174 168.022H109.515V173.988H82.174V168.022Z" fill="#060707"/>
</g>
</g>
</g>
<path id="Vector_12" d="M25.4907 56.1736H167.192C172.401 56.1736 176.624 60.3965 176.624 65.6056V159.584C176.624 164.794 172.401 169.016 167.192 169.016H25.4907C20.2816 169.016 16.0587 164.794 16.0587 159.584V65.6056C16.0587 60.3965 20.2816 56.1736 25.4907 56.1736Z" fill="#181818"/>
<path id="Vector_13" d="M20.5327 61.1448H171.653V154.103H20.5327V61.1448Z" fill="#19467F"/>
<path id="Vector_14" opacity="0.3" d="M96.5897 165.04C98.2369 165.04 99.5723 163.705 99.5723 162.057C99.5723 160.41 98.2369 159.075 96.5897 159.075C94.9424 159.075 93.6071 160.41 93.6071 162.057C93.6071 163.705 94.9424 165.04 96.5897 165.04Z" fill="white"/>
<path id="Vector_15" d="M6.99042 67.6072H85.7743C89.8259 67.6072 93.1103 70.8916 93.1103 74.9432V97.057C93.1103 101.109 89.8259 104.393 85.7743 104.393H6.99042C2.93885 104.393 -0.345581 101.109 -0.345581 97.057V74.9432C-0.345581 70.8916 2.93885 67.6072 6.99042 67.6072Z" fill="white"/>
<path id="Vector_16" d="M40.8932 76.3895C40.8408 76.2323 40.6978 76.1207 40.5295 76.1055L38.2334 75.9017L37.3258 73.8235C37.2587 73.671 37.1063 73.5725 36.9365 73.5725C36.7667 73.5725 36.6142 73.671 36.5477 73.8235L35.6401 75.9017L33.3439 76.1055C33.1757 76.1207 33.0332 76.2323 32.9803 76.3895C32.9279 76.5473 32.9761 76.7202 33.1034 76.8292L34.8389 78.3184L34.327 80.5234C34.2892 80.6853 34.3537 80.853 34.4915 80.9499C34.5638 81.0015 34.6505 81.0292 34.7393 81.029C34.8143 81.029 34.8892 81.0096 34.9563 80.9703L36.936 79.8123L38.9156 80.9703C38.987 81.0119 39.0688 81.0321 39.1513 81.0285C39.2338 81.0249 39.3135 80.9976 39.3809 80.9499C39.5182 80.853 39.5827 80.6853 39.5455 80.5234L39.0335 78.3184L40.769 76.8292C40.8974 76.7202 40.9456 76.5478 40.8932 76.3895ZM50.8356 76.3895C50.7832 76.2323 50.6407 76.1207 50.4719 76.1061L48.1758 75.9017L47.2682 73.8235C47.2011 73.671 47.0486 73.5725 46.8789 73.5725C46.7091 73.5725 46.5566 73.671 46.49 73.8235L45.5825 75.9017L43.2863 76.1061C43.1181 76.1213 42.9756 76.2323 42.9227 76.3895C42.8703 76.5473 42.9185 76.7202 43.0458 76.8292L44.7813 78.3184L44.2693 80.5234C44.2321 80.6853 44.2961 80.853 44.4339 80.9504C44.5078 81.0028 44.5947 81.029 44.6817 81.029C44.7567 81.029 44.8316 81.0096 44.8987 80.9703L46.8783 79.8123L48.858 80.9703C48.9292 81.0119 49.0109 81.0321 49.0933 81.0286C49.1757 81.0251 49.2554 80.9979 49.3228 80.9504C49.4601 80.853 49.5245 80.6853 49.4873 80.5234L48.9754 78.3184L50.7109 76.8292C50.8392 76.7202 50.888 76.5478 50.8356 76.3895ZM60.7774 76.3895C60.725 76.2323 60.582 76.1207 60.4138 76.1061L58.1181 75.9017L57.2106 73.8235C57.1435 73.671 56.991 73.5725 56.8212 73.5725C56.652 73.5725 56.4995 73.671 56.4324 73.8235L55.5254 75.9017L53.2287 76.1061C53.0605 76.1213 52.918 76.2323 52.8656 76.3895C52.8132 76.5473 52.8614 76.7202 52.9887 76.8292L54.7242 78.3184L54.2128 80.5234C54.175 80.6853 54.2395 80.853 54.3768 80.9504C54.4507 81.0028 54.5376 81.029 54.6246 81.029C54.6996 81.029 54.7745 81.0096 54.8416 80.9703L56.8212 79.8123L58.8009 80.9703C58.8721 81.0119 58.9538 81.0321 59.0362 81.0286C59.1186 81.0251 59.1983 80.9979 59.2657 80.9504C59.4035 80.853 59.468 80.6853 59.4302 80.5234L58.9188 78.3184L60.6543 76.8292C60.7163 76.7765 60.7612 76.7066 60.7832 76.6282C60.8051 76.5499 60.8031 76.4667 60.7774 76.3895ZM70.7193 76.3895C70.6674 76.2323 70.5244 76.1207 70.3562 76.1061L68.06 75.9017L67.1524 73.8235C67.0859 73.671 66.9334 73.5725 66.7636 73.5725C66.5938 73.5725 66.4413 73.671 66.3748 73.8235L65.4672 75.9017L63.1711 76.1061C63.0029 76.1213 62.8603 76.2323 62.8074 76.3895C62.755 76.5473 62.8037 76.7202 62.9306 76.8292L64.6666 78.3184L64.1546 80.5234C64.1174 80.6853 64.1813 80.853 64.3192 80.9504C64.393 81.0028 64.48 81.029 64.567 81.029C64.6419 81.029 64.7169 81.0096 64.7839 80.9703L66.7636 79.8123L68.7428 80.9703C68.8141 81.0119 68.8959 81.0321 68.9783 81.0286C69.0608 81.0251 69.1405 80.9979 69.2081 80.9504C69.3454 80.853 69.4098 80.6853 69.3726 80.5234L68.8607 78.3184L70.5961 76.8292C70.6582 76.7765 70.7031 76.7066 70.725 76.6282C70.747 76.5499 70.745 76.4667 70.7193 76.3895ZM80.6617 76.3895C80.6093 76.2323 80.4662 76.1207 80.298 76.1061L78.0024 75.9017L77.0948 73.8235C77.0277 73.671 76.8752 73.5725 76.7055 73.5725C76.5362 73.5725 76.3832 73.671 76.3167 73.8235L75.4096 75.9017L73.1129 76.1061C72.9447 76.1213 72.8022 76.2323 72.7498 76.3895C72.6974 76.5473 72.7456 76.7202 72.8729 76.8292L74.6084 78.3184L74.097 80.5234C74.0593 80.6853 74.1237 80.853 74.261 80.9504C74.3349 81.0028 74.4219 81.029 74.5089 81.029C74.5838 81.029 74.6587 81.0096 74.7258 80.9703L76.7055 79.8123L78.6851 80.9703C78.7564 81.0119 78.8381 81.0321 78.9205 81.0286C79.0028 81.0251 79.0825 80.9979 79.1499 80.9504C79.2877 80.853 79.3522 80.6853 79.3145 80.5234L78.8025 78.3184L80.5385 76.8292C80.6006 76.7765 80.6454 76.7066 80.6674 76.6282C80.6893 76.5499 80.6873 76.4667 80.6617 76.3895Z" fill="#F8BA51"/>
<path id="Vector_17" d="M17.0533 98.9252C24.1916 98.9252 29.9783 93.1385 29.9783 86.0002C29.9783 78.8619 24.1916 73.0752 17.0533 73.0752C9.91501 73.0752 4.1283 78.8619 4.1283 86.0002C4.1283 93.1385 9.91501 98.9252 17.0533 98.9252Z" fill="#F8BA51"/>
<g id="Mask group_2">
<mask id="mask1_23_5" style="mask-type:luminance" maskUnits="userSpaceOnUse" x="4" y="73" width="26" height="26">
<g id="Group_3">
<path id="Vector_18" d="M17.0533 98.9252C24.1916 98.9252 29.9783 93.1385 29.9783 86.0002C29.9783 78.8619 24.1916 73.0752 17.0533 73.0752C9.91501 73.0752 4.1283 78.8619 4.1283 86.0002C4.1283 93.1385 9.91501 98.9252 17.0533 98.9252Z" fill="#FAEDC6"/>
</g>
</mask>
<g mask="url(#mask1_23_5)">
<g id="Group_4">
<path id="Vector_19" d="M16.8044 86.0002C9.24831 86.0002 6.53084 92.4622 6.11688 95.6937C7.27702 97.2678 11.0383 100.416 16.8044 100.416C22.5705 100.416 26.9951 97.7646 28.4864 96.4394C27.7408 92.9595 24.3605 86.0002 16.8044 86.0002Z" fill="#2A458B"/>
</g>
</g>
</g>
<path id="Vector_20" d="M15.562 84.7572C12.5794 84.1603 13.1594 80.5316 13.8223 78.7919C16.0592 76.0577 21.5272 78.0463 21.5272 80.0343C21.5272 82.0229 20.5332 83.0169 19.0419 84.5083C19.2902 86.2485 19.0419 88.237 16.5565 88.2365C14.0707 88.2365 14.8163 86.2485 15.562 84.7572Z" fill="#FDCA9E"/>
<path id="Vector_21" d="M16.8044 75.3122C12.5789 73.8209 11.3365 78.2949 13.3245 79.7862C16.8044 77.0519 19.5381 80.2834 18.7925 82.7688C19.1834 81.4656 21.0294 81.7747 19.7865 83.7628C25.255 79.0405 21.7751 73.3237 16.8044 75.3122Z" fill="#243067"/>
<path id="Vector_22" d="M34.949 94.4508H48.868V95.4448H34.949V94.4508ZM34.949 89.9768H68.2549V90.9709H34.949V89.9768ZM34.949 85.5029H68.2549V86.497H34.949V85.5029Z" fill="#19467F"/>
<path id="Vector_23" d="M106.412 67.1099H185.195C189.247 67.1099 192.531 70.3943 192.531 74.4459V96.5597C192.531 100.611 189.247 103.896 185.195 103.896H106.412C102.36 103.896 99.0756 100.611 99.0756 96.5597V74.4459C99.0756 70.3943 102.36 67.1099 106.412 67.1099Z" fill="white"/>
<path id="Vector_24" d="M140.314 75.8927C140.262 75.735 140.119 75.6234 139.951 75.6087L137.655 75.4049L136.747 73.3267C136.68 73.1737 136.528 73.0752 136.359 73.0752C136.189 73.0752 136.036 73.1737 135.97 73.3267L135.062 75.4049L132.766 75.6087C132.597 75.6239 132.455 75.7355 132.402 75.8927C132.35 76.0499 132.398 76.2229 132.526 76.3324L134.261 77.8211L133.75 80.0261C133.712 80.188 133.776 80.3557 133.914 80.4531C133.988 80.5055 134.075 80.5317 134.162 80.5317C134.237 80.5317 134.312 80.5123 134.378 80.473L136.359 79.315L138.338 80.473C138.409 80.5146 138.491 80.5348 138.573 80.5313C138.656 80.5277 138.736 80.5006 138.803 80.4531C138.94 80.3557 139.005 80.188 138.967 80.0261L138.456 77.8211L140.191 76.3324C140.319 76.2229 140.367 76.0505 140.314 75.8927ZM150.257 75.8927C150.204 75.735 150.061 75.6234 149.893 75.6087L147.597 75.4049L146.69 73.3267C146.623 73.1737 146.47 73.0752 146.301 73.0752C146.131 73.0752 145.978 73.1737 145.912 73.3267L145.005 75.4049L142.708 75.6087C142.54 75.6239 142.397 75.7355 142.345 75.8927C142.292 76.0499 142.341 76.2229 142.468 76.3324L144.203 77.8211L143.692 80.0261C143.654 80.188 143.719 80.3557 143.856 80.4531C143.93 80.5055 144.017 80.5317 144.104 80.5317C144.179 80.5317 144.254 80.5123 144.321 80.473L146.301 79.315L148.28 80.473C148.351 80.5146 148.433 80.5348 148.515 80.5313C148.598 80.5277 148.678 80.5006 148.745 80.4531C148.883 80.3557 148.947 80.188 148.909 80.0261L148.398 77.8211L150.134 76.3324C150.26 76.2229 150.309 76.0505 150.257 75.8927ZM160.199 75.8927C160.146 75.735 160.004 75.6234 159.835 75.6087L157.539 75.4049L156.632 73.3267C156.565 73.1737 156.413 73.0752 156.243 73.0752C156.073 73.0752 155.921 73.1737 155.854 73.3267L154.947 75.4049L152.65 75.6087C152.482 75.6239 152.34 75.7355 152.287 75.8927C152.234 76.0499 152.282 76.2229 152.41 76.3324L154.146 77.8211L153.634 80.0261C153.597 80.188 153.661 80.3557 153.798 80.4531C153.872 80.5055 153.959 80.5317 154.046 80.5317C154.121 80.5317 154.196 80.5123 154.263 80.473L156.243 79.315L158.222 80.473C158.293 80.5146 158.375 80.5348 158.458 80.5313C158.54 80.5277 158.62 80.5006 158.687 80.4531C158.825 80.3557 158.889 80.188 158.852 80.0261L158.34 77.8211L160.075 76.3324C160.203 76.2229 160.251 76.0505 160.199 75.8927Z" fill="#F8BA51"/>
<path id="Vector_25" d="M170.141 75.8927C170.089 75.735 169.946 75.6234 169.777 75.6087L167.481 75.4049L166.574 73.3267C166.507 73.1737 166.355 73.0752 166.185 73.0752C166.015 73.0752 165.862 73.1737 165.796 73.3267L164.889 75.4049L162.592 75.6087C162.424 75.6239 162.281 75.7355 162.229 75.8927C162.177 76.0499 162.225 76.2229 162.352 76.3324L164.088 77.8211L163.576 80.0261C163.539 80.188 163.603 80.3557 163.74 80.4531C163.814 80.5055 163.901 80.5317 163.988 80.5317C164.063 80.5317 164.138 80.5123 164.205 80.473L166.185 79.315L168.164 80.473C168.236 80.5146 168.317 80.5348 168.4 80.5313C168.482 80.5277 168.562 80.5006 168.629 80.4531C168.767 80.3557 168.831 80.188 168.794 80.0261L168.282 77.8211L170.018 76.3324C170.145 76.2229 170.193 76.0505 170.141 75.8927ZM180.083 75.8927C180.03 75.735 179.888 75.6234 179.72 75.6087L177.424 75.4049L176.516 73.3267C176.449 73.1737 176.297 73.0752 176.127 73.0752C175.957 73.0752 175.805 73.1737 175.738 73.3267L174.831 75.4049L172.535 75.6087C172.366 75.6239 172.224 75.7355 172.171 75.8927C172.119 76.0499 172.167 76.2229 172.294 76.3324L174.03 77.8211L173.518 80.0261C173.481 80.188 173.545 80.3557 173.683 80.4531C173.757 80.5055 173.843 80.5317 173.931 80.5317C174.005 80.5317 174.08 80.5123 174.147 80.473L176.127 79.315L178.106 80.473C178.178 80.5146 178.259 80.5348 178.342 80.5313C178.424 80.5277 178.504 80.5006 178.572 80.4531C178.709 80.3557 178.773 80.188 178.736 80.0261L178.224 77.8211L179.96 76.3324C180.087 76.2229 180.135 76.0505 180.083 75.8927Z" fill="#E5DCC3"/>
<path id="Vector_26" d="M116.474 98.4278C123.613 98.4278 129.399 92.6411 129.399 85.5029C129.399 78.3646 123.613 72.5779 116.474 72.5779C109.336 72.5779 103.549 78.3646 103.549 85.5029C103.549 92.6411 109.336 98.4278 116.474 98.4278Z" fill="#F8BA51"/>
<g id="Mask group_3">
<mask id="mask2_23_5" style="mask-type:luminance" maskUnits="userSpaceOnUse" x="103" y="72" width="27" height="27">
<g id="Group_5">
<path id="Vector_27" d="M116.474 98.4278C123.613 98.4278 129.399 92.6411 129.399 85.5029C129.399 78.3646 123.613 72.5779 116.474 72.5779C109.336 72.5779 103.549 78.3646 103.549 85.5029C103.549 92.6411 109.336 98.4278 116.474 98.4278Z" fill="#C8E5CD"/>
</g>
</mask>
<g mask="url(#mask2_23_5)">
<g id="Group_6">
<path id="Vector_28" d="M116.226 85.5029C108.669 85.5029 105.952 91.9654 105.538 95.1964C106.698 96.7705 110.459 99.9187 116.226 99.9187C121.992 99.9187 126.416 97.2678 127.908 95.9421C127.162 92.4622 123.782 85.5029 116.226 85.5029Z" fill="#EF416A"/>
</g>
</g>
</g>
<path id="Vector_29" d="M114.983 84.2601C112.001 83.6638 112.581 80.0345 113.243 78.2948C115.48 75.5606 120.948 77.5492 120.948 79.5378C120.948 81.5258 119.954 82.5204 118.463 84.0117C118.711 85.7514 118.463 87.7399 115.977 87.7399C113.492 87.7399 114.237 85.7514 114.983 84.2601Z" fill="#FDCA9E"/>
<path id="Vector_30" d="M116.226 74.8148C112 73.3235 110.757 77.7974 112.746 79.2887C116.226 76.555 118.96 79.786 118.214 82.2713C118.605 80.9686 120.451 81.2773 119.208 83.2658C124.676 78.543 121.197 72.8267 116.226 74.8148Z" fill="#212121"/>
<path id="Vector_31" d="M134.37 93.9539H148.289V94.948H134.37V93.9539ZM134.37 89.48H167.676V90.474H134.37V89.48ZM134.37 85.0061H167.676V86.0001H134.37V85.0061Z" fill="#19467F"/>
<path id="Vector_32" d="M56.7007 110.358H135.485C139.536 110.358 142.821 113.643 142.821 117.694V139.808C142.821 143.86 139.536 147.144 135.485 147.144H56.7007C52.6491 147.144 49.3647 143.86 49.3647 139.808V117.694C49.3647 113.643 52.6491 110.358 56.7007 110.358Z" fill="white"/>
<path id="Vector_33" d="M90.6035 119.141C90.5511 118.983 90.4086 118.872 90.2404 118.857L87.9442 118.653L87.0366 116.574C86.9696 116.422 86.8171 116.323 86.6478 116.323C86.4781 116.323 86.3256 116.422 86.259 116.574L85.3515 118.653L83.0553 118.857C82.8871 118.872 82.7446 118.983 82.6916 119.141C82.6392 119.298 82.6874 119.471 82.8148 119.58L84.5508 121.069L84.0388 123.274C84.0011 123.436 84.0656 123.604 84.2034 123.701C84.2757 123.753 84.3624 123.78 84.4512 123.78C84.5262 123.78 84.6011 123.761 84.6676 123.721L86.6478 122.563L88.627 123.721C88.6983 123.763 88.7801 123.783 88.8626 123.779C88.9451 123.776 89.0249 123.749 89.0923 123.701C89.2296 123.604 89.294 123.436 89.2563 123.274L88.7449 121.069L90.4804 119.58C90.5424 119.528 90.5873 119.458 90.6092 119.379C90.6312 119.301 90.6292 119.218 90.6035 119.141ZM100.546 119.141C100.493 118.983 100.35 118.872 100.182 118.857L97.8861 118.653L96.9785 116.574C96.912 116.422 96.7595 116.323 96.5897 116.323C96.4199 116.323 96.2674 116.422 96.2009 116.574L95.2933 118.653L92.9972 118.857C92.8289 118.872 92.6864 118.983 92.6335 119.141C92.5811 119.298 92.6298 119.471 92.7566 119.58L94.4926 121.069L93.9807 123.274C93.9435 123.436 94.0074 123.604 94.1452 123.701C94.2175 123.753 94.3042 123.78 94.3931 123.78C94.468 123.78 94.5429 123.761 94.61 123.721L96.5897 122.563L98.5688 123.721C98.6402 123.763 98.722 123.783 98.8045 123.779C98.887 123.776 98.9667 123.749 99.0342 123.701C99.1714 123.604 99.2359 123.436 99.1987 123.274L98.6867 121.069L100.422 119.58C100.484 119.527 100.529 119.458 100.551 119.379C100.573 119.301 100.571 119.218 100.546 119.141Z" fill="#F8BA51"/>
<path id="Vector_34" d="M110.488 119.141C110.435 118.983 110.292 118.872 110.124 118.857L107.828 118.653L106.921 116.574C106.854 116.422 106.701 116.323 106.532 116.323C106.362 116.323 106.21 116.422 106.143 116.574L105.236 118.653L102.939 118.857C102.771 118.872 102.628 118.983 102.576 119.141C102.523 119.298 102.572 119.471 102.699 119.58L104.434 121.069L103.923 123.274C103.885 123.436 103.95 123.604 104.087 123.701C104.159 123.753 104.246 123.78 104.335 123.78C104.41 123.78 104.485 123.761 104.552 123.721L106.532 122.563L108.511 123.721C108.582 123.763 108.664 123.783 108.747 123.779C108.829 123.776 108.909 123.749 108.976 123.701C109.114 123.604 109.178 123.436 109.141 123.274L108.629 121.069L110.365 119.58C110.427 119.528 110.472 119.458 110.493 119.379C110.515 119.301 110.513 119.218 110.488 119.141ZM120.43 119.141C120.377 118.983 120.235 118.872 120.066 118.857L117.77 118.653L116.863 116.574C116.796 116.422 116.644 116.323 116.474 116.323C116.304 116.323 116.152 116.422 116.085 116.574L115.178 118.653L112.881 118.857C112.713 118.872 112.571 118.983 112.518 119.141C112.465 119.298 112.514 119.471 112.641 119.58L114.377 121.069L113.865 123.274C113.828 123.436 113.892 123.604 114.029 123.701C114.102 123.753 114.188 123.78 114.277 123.78C114.352 123.78 114.427 123.761 114.494 123.721L116.474 122.563L118.453 123.721C118.524 123.763 118.606 123.783 118.689 123.779C118.771 123.776 118.851 123.749 118.918 123.701C119.056 123.604 119.12 123.436 119.083 123.274L118.571 121.069L120.306 119.58C120.368 119.528 120.413 119.458 120.435 119.379C120.457 119.301 120.455 119.218 120.43 119.141ZM130.372 119.141C130.32 118.983 130.177 118.872 130.008 118.857L127.712 118.653L126.805 116.574C126.738 116.422 126.586 116.323 126.416 116.323C126.246 116.323 126.094 116.422 126.027 116.574L125.12 118.653L122.823 118.857C122.655 118.872 122.512 118.983 122.46 119.141C122.408 119.298 122.456 119.471 122.583 119.58L124.319 121.069L123.807 123.274C123.77 123.436 123.834 123.604 123.971 123.701C124.044 123.753 124.13 123.78 124.219 123.78C124.294 123.78 124.369 123.761 124.436 123.721L126.416 122.563L128.395 123.721C128.467 123.763 128.548 123.783 128.631 123.779C128.713 123.776 128.793 123.749 128.86 123.701C128.998 123.604 129.062 123.436 129.025 123.274L128.513 121.069L130.249 119.58C130.376 119.471 130.424 119.299 130.372 119.141Z" fill="#E5DCC3"/>
<path id="Vector_35" d="M66.7636 141.676C73.9019 141.676 79.6886 135.889 79.6886 128.751C79.6886 121.612 73.9019 115.826 66.7636 115.826C59.6253 115.826 53.8386 121.612 53.8386 128.751C53.8386 135.889 59.6253 141.676 66.7636 141.676Z" fill="#F8BA51"/>
<g id="Mask group_4">
<mask id="mask3_23_5" style="mask-type:luminance" maskUnits="userSpaceOnUse" x="53" y="115" width="27" height="27">
<g id="Group_7">
<path id="Vector_36" d="M66.7636 141.676C73.9019 141.676 79.6886 135.889 79.6886 128.751C79.6886 121.612 73.9019 115.826 66.7636 115.826C59.6253 115.826 53.8386 121.612 53.8386 128.751C53.8386 135.889 59.6253 141.676 66.7636 141.676Z" fill="#9AC1E7"/>
</g>
</mask>
<g mask="url(#mask3_23_5)">
<g id="Group_8">
<path id="Vector_37" d="M66.5152 128.751C58.9592 128.751 56.2417 135.213 55.8272 138.445C56.9873 140.019 60.7486 143.167 66.5152 143.167C72.2813 143.167 76.7055 140.516 78.1968 139.19C77.4511 135.71 74.0708 128.751 66.5152 128.751Z" fill="#F58661"/>
</g>
</g>
</g>
<path id="Vector_38" d="M62.787 131.354C63.9901 127.845 66.6976 127.26 66.9984 127.26C69.1038 127.26 70.0061 129.307 68.5023 132.231C67.7802 130.36 66.1961 131.451 65.494 132.231C65.2933 131.548 64.4711 130.418 62.787 131.354Z" fill="#CD5E38"/>
<path id="Vector_39" d="M65.2723 127.508C62.2897 126.912 62.8698 123.283 63.5326 121.543C65.7696 118.809 71.2375 120.798 71.2375 122.786C71.2375 124.774 70.2435 125.768 68.7522 127.259C69.0006 129 68.7522 130.988 66.2668 130.988C63.781 130.988 64.5266 129 65.2723 127.508Z" fill="#FDCA9E"/>
<path id="Vector_40" d="M64.7755 119.306C60.55 117.815 60.0527 123.034 63.0353 122.537C65.7696 121.046 69.2494 123.034 68.5038 125.52C68.8947 124.216 70.7407 124.526 69.4978 126.514C77.7 120.3 66.7636 114.086 64.7755 119.306Z" fill="#212121"/>
<path id="Vector_41" d="M84.6593 137.202H98.5783V138.196H84.6593V137.202ZM84.6593 132.728H117.965V133.722H84.6593V132.728ZM84.6593 128.254H117.965V129.248H84.6593V128.254Z" fill="#19467F"/>
</g>
</g>
</svg>